<?xml version="1.0" encoding="us-ascii" standalone="no"?><svg xmlns="http://www.w3.org/2000/svg" xmlns:xlink="http://www.w3.org/1999/xlink" contentStyleType="text/css" height="455.2083px" preserveAspectRatio="none" style="width:351px;height:455px;" version="1.1" viewBox="0 0 351 455" width="351.0417px" zoomAndPan="magnify"><defs/><g><!--class EstimateField--><g id="elem_EstimateField"><polygon fill="#474747" points="43.75,17.7083,43.75,17.9273,54.072,17.2767,64.3939,17.9097,74.7159,18.1247,85.0379,16.9652,95.3598,17.6274,105.6818,17.2641,116.0038,17.3089,126.3258,17.6373,136.6477,16.9882,146.9697,18.285,157.2917,17.7083,157.2079,17.5061,157.8546,17.889,158.5276,18.3351,159.048,18.413,159.6578,18.7065,160.2379,18.9287,160.2277,18.9245,160.5393,19.5417,160.8028,20.139,161.1581,20.7743,161.4295,21.3749,161.4583,21.875,162.1659,21.875,161.7236,32.4538,161.9412,43.0326,162.1898,53.6114,160.7071,64.1902,162.1651,74.769,161.1495,85.3478,162.0144,95.9266,160.9427,106.5054,161.387,117.0842,162.2308,127.663,161.4076,138.2418,161.568,148.8206,161.4583,159.3994,161.567,159.4444,161.3478,160.044,160.9689,160.5774,160.8182,161.2053,160.2984,161.6804,160.2379,162.3457,160.2757,162.4369,159.7215,162.7656,159.1185,162.9765,158.5516,163.2746,157.8167,163.167,157.2917,163.5661,157.2917,162.8867,146.9697,162.9188,136.6477,163.5047,126.3258,163.3614,116.0038,164.2759,105.6818,163.3841,95.3598,163.2087,85.0379,163.8039,74.7159,162.8715,64.3939,163.0253,54.072,164.2421,43.75,163.5661,43.8079,163.7058,43.2583,163.5576,42.5287,162.9747,42.0246,162.9362,41.4714,162.7792,40.8037,162.3457,40.6522,162.2829,40.5289,161.7437,40.356,161.1839,40.2806,160.6645,39.8261,159.9881,39.5833,159.3994,40.0652,159.3994,39.0065,148.8206,38.8779,138.2418,40.1079,127.663,38.8365,117.0842,40.1135,106.5054,39.7986,95.9266,39.3043,85.3478,39.2148,74.769,40.0612,64.1902,39.2715,53.6114,40.1999,43.0326,39.0076,32.4538,39.5833,21.875,39.7814,21.957,39.9828,21.3501,40.1501,20.729,40.3307,20.1135,40.7927,19.6145,40.8037,18.9287,40.8853,19.1256,41.4155,18.7389,42.0179,18.5266,42.5542,18.1547,43.2559,18.1822,43.75,17.7083" style="stroke:#333333;stroke-width:1.0416666666666667;"/><polygon fill="none" points="64.6409,37.3279,63.114,39.4142,61.308,42.47,58.725,44.5293,56.0108,45.6555,53.8466,45.7532,51.065,44.3448,48.4405,43.4247,46.4484,41.5566,45.4035,39.4179,44.7838,37.7151,44.1767,35.4908,43.1913,33.5768,43.9485,31.7079,44.6119,29.6608,47.1016,28.0417,48.8532,25.941,51.0212,25.2434,53.5986,24.6426,56.9038,24.9996,58.7141,25.8533,60.8189,26.2403,63.378,28.8623,64.2701,31.6302,64.6577,33.5189,64.2187,36.6311" style="stroke:#2E2E2E;stroke-width:1.0416666666666667;"/><path d="M53.4668,35.3963 L54.5247,35.3963 L54.5247,35.494 C54.5247,35.7869 54.5573,35.9009 54.6224,36.0148 C54.7363,36.2101 54.9479,36.3078 55.1595,36.3078 C55.3385,36.3078 55.5339,36.2101 55.6478,36.0474 C55.7454,35.9334 55.7617,35.8195 55.7617,35.494 L55.7617,34.078 C55.7617,33.964 55.7617,33.9315 55.7617,33.8175 C55.6966,33.4595 55.485,33.2479 55.1432,33.2479 C54.9479,33.2479 54.7689,33.3455 54.6387,33.5083 C54.5573,33.6222 54.5247,33.7362 54.5247,34.078 L54.5247,34.1593 L53.4668,34.1593 L53.4668,32.4015 L56.3965,32.4015 L56.3965,33.02 C56.3965,33.3293 56.4128,33.4595 56.4779,33.5571 C56.6081,33.7524 56.8034,33.8664 57.015,33.8664 C57.2103,33.8664 57.4056,33.7687 57.5358,33.606 C57.6172,33.4757 57.6497,33.3781 57.6497,33.02 L57.6497,31.1483 L52.0345,31.1483 C51.709,31.1483 51.6113,31.1646 51.4974,31.2459 C51.3184,31.3599 51.2044,31.5715 51.2044,31.783 C51.2044,31.9784 51.3021,32.1574 51.4648,32.2876 C51.5788,32.3853 51.709,32.4015 52.0345,32.4015 L52.2135,32.4015 L52.2135,37.1867 L52.0345,37.1867 C51.7253,37.1867 51.6113,37.203 51.4974,37.2843 C51.3184,37.3983 51.2044,37.6099 51.2044,37.8215 C51.2044,38.0168 51.3021,38.1958 51.4648,38.3097 C51.5625,38.4074 51.7415,38.4399 52.0345,38.4399 L57.9102,38.4399 L57.9102,36.5356 C57.9102,36.2264 57.8939,36.1125 57.8288,35.9985 C57.6986,35.8195 57.5033,35.7056 57.2917,35.7056 C57.0964,35.7056 56.901,35.7869 56.7871,35.966 C56.6895,36.0962 56.6732,36.1938 56.6732,36.5356 L56.6732,37.1867 L53.4668,37.1867 L53.4668,35.3963 Z " fill="#FFFFFF"/><text fill="#FFFFFF" font-family="Segoe Print" font-size="11.4583" lengthAdjust="spacing" textLength="80.2083" x="72.9167" y="38.7609">EstimateField</text><path d="M40.625,51.8799 L40.625,52.1718 L50.6076,51.3044 L60.5903,52.1483 L70.5729,52.435 L80.5556,50.8891 L90.5382,51.7719 L100.5208,51.2875 L110.5035,51.3472 L120.4861,51.7852 L130.4688,50.9196 L140.4514,52.6488 L150.434,51.0045 L160.4167,51.8799 " fill="#474747" style="stroke:#333333;stroke-width:1.0416666666666667;"/><polygon fill="none" points="54.1839,70.2466,53.7259,70.8725,53.1841,71.7892,52.4092,72.4071,51.5949,72.7449,50.9456,72.7742,50.1112,72.3517,49.3238,72.0757,48.7262,71.5152,48.4127,70.8736,48.2268,70.3628,48.0447,69.6955,47.749,69.1213,47.9762,68.5606,48.1752,67.9465,48.9221,67.4608,49.4476,66.8306,50.098,66.6213,50.8712,66.4411,51.8628,66.5481,52.4059,66.8043,53.0373,66.9204,53.8051,67.7069,54.0727,68.5373,54.189,69.1039,54.0573,70.0376" style="stroke:#2E2E2E;stroke-width:1.0416666666666667;"/><text fill="#FFFFFF" font-family="Segoe Print" font-size="11.4583" lengthAdjust="spacing" textLength="10.4167" x="64.5833" y="71.8908">id</text><path d="M40.625,83.9681 L40.625,84.26 L50.6076,83.3927 L60.5903,84.2366 L70.5729,84.5232 L80.5556,82.9773 L90.5382,83.8602 L100.5208,83.3757 L110.5035,83.4355 L120.4861,83.8734 L130.4688,83.0079 L140.4514,84.737 L150.434,83.0927 L160.4167,83.9681 " fill="#474747" style="stroke:#333333;stroke-width:1.0416666666666667;"/><polygon fill="none" points="54.1839,102.3348,53.7259,102.9607,53.1841,103.8775,52.4092,104.4953,51.5949,104.8331,50.9456,104.8624,50.1112,104.4399,49.3238,104.1639,48.7262,103.6035,48.4127,102.9619,48.2268,102.451,48.0447,101.7837,47.749,101.2095,47.9762,100.6489,48.1752,100.0347,48.9221,99.549,49.4476,98.9188,50.098,98.7095,50.8712,98.5293,51.8628,98.6363,52.4059,98.8925,53.0373,99.0086,53.8051,99.7952,54.0727,100.6255,54.189,101.1921,54.0573,102.1258" style="stroke:#2E2E2E;stroke-width:1.0416666666666667;"/><text fill="#FFFFFF" font-family="Segoe Print" font-size="11.4583" lengthAdjust="spacing" textLength="34.375" x="64.5833" y="103.979">name</text><polygon fill="none" points="54.1839,126.0897,53.7259,126.7156,53.1841,127.6323,52.4092,128.2502,51.5949,128.588,50.9456,128.6173,50.1112,128.1948,49.3238,127.9188,48.7262,127.3583,48.4127,126.7167,48.2268,126.2059,48.0447,125.5386,47.749,124.9644,47.9762,124.4037,48.1752,123.7896,48.9221,123.3039,49.4476,122.6737,50.098,122.4644,50.8712,122.2841,51.8628,122.3912,52.4059,122.6474,53.0373,122.7635,53.8051,123.55,54.0727,124.3804,54.189,124.947,54.0573,125.8807" style="stroke:#2E2E2E;stroke-width:1.0416666666666667;"/><text fill="#FFFFFF" font-family="Segoe Print" font-size="11.4583" lengthAdjust="spacing" textLength="23.9583" x="64.5833" y="127.7339">slug</text><polygon fill="none" points="54.1839,149.8446,53.7259,150.4705,53.1841,151.3872,52.4092,152.005,51.5949,152.3429,50.9456,152.3722,50.1112,151.9497,49.3238,151.6737,48.7262,151.1132,48.4127,150.4716,48.2268,149.9608,48.0447,149.2935,47.749,148.7193,47.9762,148.1586,48.1752,147.5445,48.9221,147.0588,49.4476,146.4285,50.098,146.2193,50.8712,146.039,51.8628,146.1461,52.4059,146.4022,53.0373,146.5183,53.8051,147.3049,54.0727,148.1353,54.189,148.7019,54.0573,149.6356" style="stroke:#2E2E2E;stroke-width:1.0416666666666667;"/><text fill="#FFFFFF" font-family="Segoe Print" font-size="11.4583" lengthAdjust="spacing" textLength="27.0833" x="64.5833" y="151.4887">type</text></g><!--class EstimatePresetValue--><g id="elem_EstimatePresetValue"><polygon fill="#474747" points="21.875,226.0417,21.875,226.2606,32.3611,225.6101,42.8472,226.243,53.3333,226.458,63.8194,225.2985,74.3056,225.9607,84.7917,225.5974,95.2778,225.6422,105.7639,225.9707,116.25,225.3215,126.7361,226.6184,137.2222,225.3851,147.7083,225.8357,158.1944,226.4916,168.6806,225.9523,179.1667,226.0417,179.1757,226.0636,179.7517,226.2755,180.3689,226.5871,180.9662,226.8506,181.6015,227.2059,182.1129,227.2621,182.3282,227.3512,182.5749,227.9416,182.6828,228.4744,182.9939,229.0914,183.3145,229.7124,183.3333,230.2083,182.5821,230.2083,184.0401,240.6478,183.0245,251.0872,183.8894,261.5267,182.8177,271.9661,183.262,282.4056,184.1058,292.8451,183.2826,303.2845,183.443,313.724,183.6861,324.1634,183.7669,334.6029,183.3293,345.0423,183.6325,355.4818,182.7371,365.9212,183.6296,376.3607,183.9044,386.8001,183.7964,397.2396,183.9719,407.679,182.8301,418.1185,182.654,428.5579,183.3333,438.9974,183.134,438.9148,183.0704,439.5788,182.7821,440.1498,182.8197,440.8557,182.301,441.3312,182.1129,441.9437,182.0674,441.8336,181.554,442.261,180.8458,442.2179,180.2762,442.5094,179.8422,443.1282,179.1667,443.1641,179.1667,443.6179,168.6806,443.9292,158.1944,442.8289,147.7083,443.4966,137.2222,443.7791,126.7361,442.672,116.25,443.0642,105.7639,443.2953,95.2778,443.843,84.7917,443.1597,74.3056,443.6459,63.8194,442.5872,53.3333,442.4586,42.8472,443.6887,32.3611,442.4172,21.875,443.1641,21.9426,443.3273,21.3132,442.9863,20.6609,442.59,20.0602,442.3183,19.5789,442.3349,18.9287,441.9437,18.8327,441.9039,18.8745,441.4331,18.2633,440.6917,18.3946,440.2579,18.1078,439.651,17.7083,438.9974,17.9635,438.9974,17.7575,428.5579,18.4652,418.1185,18.3475,407.679,17.8846,397.2396,17.9877,386.8001,17.5726,376.3607,18.4546,365.9212,17.8697,355.4818,17.8881,345.0423,17.0746,334.6029,17.2862,324.1634,18.2612,313.724,18.156,303.2845,17.6636,292.8451,17.3727,282.4056,17.4803,271.9661,16.9936,261.5267,18.1404,251.0872,18.4787,240.6478,17.7083,230.2083,17.8772,230.2783,18.1753,229.7114,18.1526,229.0117,18.4685,228.4522,18.5603,227.7998,18.9287,227.2621,18.9665,227.3532,19.5508,227.0971,20.1806,226.9511,20.666,226.4561,21.2679,226.2426,21.875,226.0417" style="stroke:#333333;stroke-width:1.0416666666666667;"/><polygon fill="none" points="42.7659,245.6612,41.239,247.7475,39.433,250.8033,36.85,252.8627,34.1358,253.9888,31.9716,254.0866,29.19,252.6781,26.5655,251.758,24.5734,249.8899,23.5285,247.7513,22.9088,246.0484,22.3017,243.8241,21.3163,241.9101,22.0735,240.0413,22.7369,237.9941,25.2266,236.3751,26.9782,234.2743,29.1462,233.5767,31.7236,232.976,35.0288,233.3329,36.8391,234.1867,38.9439,234.5736,41.503,237.1956,42.3951,239.9636,42.7827,241.8522,42.3437,244.9644" style="stroke:#2E2E2E;stroke-width:1.0416666666666667;"/><path d="M31.5918,243.7297 L32.6497,243.7297 L32.6497,243.8273 C32.6497,244.1203 32.6823,244.2342 32.7474,244.3481 C32.8613,244.5435 33.0729,244.6411 33.2845,244.6411 C33.4635,244.6411 33.6589,244.5435 33.7728,244.3807 C33.8704,244.2668 33.8867,244.1528 33.8867,243.8273 L33.8867,242.4113 C33.8867,242.2974 33.8867,242.2648 33.8867,242.1509 C33.8216,241.7928 33.61,241.5812 33.2682,241.5812 C33.0729,241.5812 32.8939,241.6789 32.7637,241.8416 C32.6823,241.9556 32.6497,242.0695 32.6497,242.4113 L32.6497,242.4927 L31.5918,242.4927 L31.5918,240.7349 L34.5215,240.7349 L34.5215,241.3534 C34.5215,241.6626 34.5378,241.7928 34.6029,241.8905 C34.7331,242.0858 34.9284,242.1997 35.14,242.1997 C35.3353,242.1997 35.5306,242.1021 35.6608,241.9393 C35.7422,241.8091 35.7747,241.7114 35.7747,241.3534 L35.7747,239.4816 L30.1595,239.4816 C29.834,239.4816 29.7363,239.4979 29.6224,239.5793 C29.4434,239.6932 29.3294,239.9048 29.3294,240.1164 C29.3294,240.3117 29.4271,240.4907 29.5898,240.6209 C29.7038,240.7186 29.834,240.7349 30.1595,240.7349 L30.3385,240.7349 L30.3385,245.52 L30.1595,245.52 C29.8503,245.52 29.7363,245.5363 29.6224,245.6177 C29.4434,245.7316 29.3294,245.9432 29.3294,246.1548 C29.3294,246.3501 29.4271,246.5291 29.5898,246.6431 C29.6875,246.7407 29.8665,246.7733 30.1595,246.7733 L36.0352,246.7733 L36.0352,244.869 C36.0352,244.5597 36.0189,244.4458 35.9538,244.3319 C35.8236,244.1528 35.6283,244.0389 35.4167,244.0389 C35.2214,244.0389 35.026,244.1203 34.9121,244.2993 C34.8145,244.4295 34.7982,244.5272 34.7982,244.869 L34.7982,245.52 L31.5918,245.52 L31.5918,243.7297 Z " fill="#FFFFFF"/><text fill="#FFFFFF" font-family="Segoe Print" font-size="11.4583" lengthAdjust="spacing" textLength="123.9583" x="51.0417" y="247.0942">EstimatePresetValue</text><path d="M18.75,260.2132 L18.75,260.5051 L28.9714,259.6378 L39.1927,260.4817 L49.4141,260.7683 L59.6354,259.2224 L69.8568,260.1053 L80.0781,259.6209 L90.2995,259.6806 L100.5208,260.1186 L110.7422,259.253 L120.9635,260.9822 L131.1849,259.3378 L141.4063,259.9385 L151.6276,260.8131 L161.849,260.0941 L172.0703,260.308 L182.2917,260.2132 " fill="#474747" style="stroke:#333333;stroke-width:1.0416666666666667;"/><polygon fill="none" points="32.3089,278.5799,31.8509,279.2058,31.3091,280.1226,30.5342,280.7404,29.7199,281.0782,29.0706,281.1076,28.2362,280.685,27.4488,280.409,26.8512,279.8486,26.5377,279.207,26.3518,278.6961,26.1697,278.0288,25.874,277.4546,26.1012,276.894,26.3002,276.2798,27.0471,275.7941,27.5726,275.1639,28.223,274.9546,28.9962,274.7744,29.9878,274.8815,30.5309,275.1376,31.1623,275.2537,31.9301,276.0403,32.1977,276.8707,32.314,277.4373,32.1823,278.3709" style="stroke:#2E2E2E;stroke-width:1.0416666666666667;"/><text fill="#FFFFFF" font-family="Segoe Print" font-size="11.4583" lengthAdjust="spacing" textLength="10.4167" x="42.7083" y="280.2241">id</text><path d="M18.75,292.3014 L18.75,292.5934 L28.9714,291.726 L39.1927,292.5699 L49.4141,292.8565 L59.6354,291.3106 L69.8568,292.1935 L80.0781,291.7091 L90.2995,291.7688 L100.5208,292.2068 L110.7422,291.3412 L120.9635,293.0704 L131.1849,291.426 L141.4063,292.0268 L151.6276,292.9014 L161.849,292.1823 L172.0703,292.3962 L182.2917,292.3014 " fill="#474747" style="stroke:#333333;stroke-width:1.0416666666666667;"/><polygon fill="none" points="32.3089,310.6682,31.8509,311.2941,31.3091,312.2108,30.5342,312.8286,29.7199,313.1665,29.0706,313.1958,28.2362,312.7733,27.4488,312.4972,26.8512,311.9368,26.5377,311.2952,26.3518,310.7843,26.1697,310.117,25.874,309.5428,26.1012,308.9822,26.3002,308.368,27.0471,307.8823,27.5726,307.2521,28.223,307.0428,28.9962,306.8626,29.9878,306.9697,30.5309,307.2258,31.1623,307.3419,31.9301,308.1285,32.1977,308.9589,32.314,309.5255,32.1823,310.4591" style="stroke:#2E2E2E;stroke-width:1.0416666666666667;"/><text fill="#FFFFFF" font-family="Segoe Print" font-size="11.4583" lengthAdjust="spacing" textLength="29.1667" x="42.7083" y="312.3123">label</text><polygon fill="none" points="32.3089,334.423,31.8509,335.0489,31.3091,335.9657,30.5342,336.5835,29.7199,336.9213,29.0706,336.9507,28.2362,336.5281,27.4488,336.2521,26.8512,335.6917,26.5377,335.0501,26.3518,334.5392,26.1697,333.8719,25.874,333.2977,26.1012,332.7371,26.3002,332.1229,27.0471,331.6372,27.5726,331.007,28.223,330.7977,28.9962,330.6175,29.9878,330.7246,30.5309,330.9807,31.1623,331.0968,31.9301,331.8834,32.1977,332.7138,32.314,333.2804,32.1823,334.214" style="stroke:#2E2E2E;stroke-width:1.0416666666666667;"/><text fill="#FFFFFF" font-family="Segoe Print" font-size="11.4583" lengthAdjust="spacing" textLength="33.3333" x="42.7083" y="336.0672">value</text><text fill="#FFFFFF" font-family="Segoe Print" font-size="11.4583" lengthAdjust="spacing" textLength="27.0833" x="42.7083" y="359.8221">time</text><text fill="#FFFFFF" font-family="Segoe Print" font-size="11.4583" lengthAdjust="spacing" textLength="73.9583" x="42.7083" y="383.577">startup_time</text><text fill="#FFFFFF" font-family="Segoe Print" font-size="11.4583" lengthAdjust="spacing" textLength="101.0417" x="42.7083" y="407.3318">total_percentage</text><polygon fill="none" points="32.3089,429.4426,31.8509,430.0685,31.3091,430.9852,30.5342,431.603,29.7199,431.9409,29.0706,431.9702,28.2362,431.5477,27.4488,431.2716,26.8512,430.7112,26.5377,430.0696,26.3518,429.5587,26.1697,428.8915,25.874,428.3172,26.1012,427.7566,26.3002,427.1425,27.0471,426.6567,27.5726,426.0265,28.223,425.8172,28.9962,425.637,29.9878,425.7441,30.5309,426.0002,31.1623,426.1163,31.9301,426.9029,32.1977,427.7333,32.314,428.2999,32.1823,429.2336" style="stroke:#2E2E2E;stroke-width:1.0416666666666667;"/><text fill="#FFFFFF" font-family="Segoe Print" font-size="11.4583" lengthAdjust="spacing" textLength="102.0833" x="42.7083" y="431.0867">estimate_field_id</text></g><!--class Estimate--><g id="elem_Estimate"><polygon fill="#474747" points="235.9375,29.6875,235.9375,29.9064,246.875,29.2559,257.8125,29.8888,268.75,30.1038,279.6875,28.9444,290.625,29.6065,301.5625,29.2432,312.5,29.288,323.4375,29.6875,323.4284,29.6656,323.9349,29.7098,324.6896,30.3533,325.1215,30.2175,325.7682,30.6004,326.3838,30.9079,326.5223,30.9653,326.6003,31.4857,326.8938,32.0955,327.1058,32.6714,327.4174,33.2886,327.6042,33.8542,327.8533,33.8542,328.2143,44.1969,328.3032,54.5395,328.3117,64.8822,327.8694,75.2249,328.0871,85.5676,328.3357,95.9103,326.8529,106.253,328.3109,116.5956,327.2953,126.9383,328.1602,137.281,327.6042,147.6237,327.4454,147.5579,327.3381,148.2039,327.3539,148.9008,326.8563,149.385,326.6616,149.9947,326.3838,150.57,326.4288,150.6786,325.8498,150.9476,325.2047,151.0569,324.6542,151.3943,323.9507,151.3627,323.4375,151.7904,323.4375,152.0866,312.5,152.3614,301.5625,152.2534,290.625,152.4289,279.6875,151.2872,268.75,151.111,257.8125,151.1431,246.875,151.729,235.9375,151.7904,235.9114,151.7273,235.4388,151.7649,234.7358,151.2462,234.1241,150.9481,233.6108,150.8873,232.9912,150.57,232.7773,150.4814,232.5806,149.9117,232.7112,149.4777,232.3987,148.8601,232.2505,148.3105,231.7708,147.6237,231.4356,147.6237,232.1033,137.281,232.3859,126.9383,231.2787,116.5956,231.671,106.253,231.9021,95.9103,232.4497,85.5676,231.7665,75.2249,232.2527,64.8822,231.194,54.5395,231.0654,44.1969,231.7708,33.8542,231.9324,33.9211,231.7849,33.1696,232.4223,32.7433,232.5694,32.1139,232.6612,31.4615,232.9912,30.9079,232.9442,30.7944,233.6414,30.811,234.13,30.3237,234.8376,30.3655,235.2748,29.7543,235.9375,29.6875" style="stroke:#333333;stroke-width:1.0416666666666667;"/><polygon fill="none" points="257.7659,49.307,256.239,51.3933,254.433,54.4491,251.85,56.5085,249.1358,57.6346,246.9716,57.7324,244.19,56.324,241.5655,55.4039,239.5734,53.5358,238.5285,51.3971,237.9088,49.6942,237.3017,47.47,236.3163,45.5559,237.0735,43.6871,237.7369,41.64,240.2266,40.0209,241.9782,37.9201,244.1462,37.2226,246.7236,36.6218,250.0288,36.9787,251.8391,37.8325,253.9439,38.2195,256.503,40.8414,257.3951,43.6094,257.7827,45.498,257.3437,48.6103" style="stroke:#2E2E2E;stroke-width:1.0416666666666667;"/><path d="M246.5918,47.3755 L247.6497,47.3755 L247.6497,47.4731 C247.6497,47.7661 247.6823,47.88 247.7474,47.994 C247.8613,48.1893 248.0729,48.2869 248.2845,48.2869 C248.4635,48.2869 248.6589,48.1893 248.7728,48.0265 C248.8704,47.9126 248.8867,47.7987 248.8867,47.4731 L248.8867,46.0571 C248.8867,45.9432 248.8867,45.9106 248.8867,45.7967 C248.8216,45.4386 248.61,45.2271 248.2682,45.2271 C248.0729,45.2271 247.8939,45.3247 247.7637,45.4875 C247.6823,45.6014 247.6497,45.7153 247.6497,46.0571 L247.6497,46.1385 L246.5918,46.1385 L246.5918,44.3807 L249.5215,44.3807 L249.5215,44.9992 C249.5215,45.3084 249.5378,45.4386 249.6029,45.5363 C249.7331,45.7316 249.9284,45.8455 250.14,45.8455 C250.3353,45.8455 250.5306,45.7479 250.6608,45.5851 C250.7422,45.4549 250.7747,45.3573 250.7747,44.9992 L250.7747,43.1274 L245.1595,43.1274 C244.834,43.1274 244.7363,43.1437 244.6224,43.2251 C244.4434,43.339 244.3294,43.5506 244.3294,43.7622 C244.3294,43.9575 244.4271,44.1366 244.5898,44.2668 C244.7038,44.3644 244.834,44.3807 245.1595,44.3807 L245.3385,44.3807 L245.3385,49.1659 L245.1595,49.1659 C244.8503,49.1659 244.7363,49.1821 244.6224,49.2635 C244.4434,49.3774 244.3294,49.589 244.3294,49.8006 C244.3294,49.9959 244.4271,50.175 244.5898,50.2889 C244.6875,50.3866 244.8665,50.4191 245.1595,50.4191 L251.0352,50.4191 L251.0352,48.5148 C251.0352,48.2056 251.0189,48.0916 250.9538,47.9777 C250.8236,47.7987 250.6283,47.6847 250.4167,47.6847 C250.2214,47.6847 250.026,47.7661 249.9121,47.9451 C249.8145,48.0754 249.7982,48.173 249.7982,48.5148 L249.7982,49.1659 L246.5918,49.1659 L246.5918,47.3755 Z " fill="#FFFFFF"/><text fill="#FFFFFF" font-family="Segoe Print" font-size="11.4583" lengthAdjust="spacing" textLength="52.0833" x="266.25" y="50.7401">Estimate</text><path d="M232.8125,63.859 L232.8125,64.151 L243.2292,63.2836 L253.6458,64.1275 L264.0625,64.4142 L274.4792,62.8682 L284.8958,63.7511 L295.3125,63.2667 L305.7292,63.3264 L316.1458,63.7644 L326.5625,63.859 " fill="#474747" style="stroke:#333333;stroke-width:1.0416666666666667;"/><polygon fill="none" points="246.3714,82.2258,245.9134,82.8517,245.3716,83.7684,244.5967,84.3862,243.7824,84.7241,243.1331,84.7534,242.2987,84.3309,241.5113,84.0548,240.9137,83.4944,240.6002,82.8528,240.4143,82.3419,240.2322,81.6747,239.9365,81.1005,240.1637,80.5398,240.3627,79.9257,241.1096,79.4399,241.6351,78.8097,242.2855,78.6004,243.0587,78.4202,244.0503,78.5273,244.5934,78.7834,245.2248,78.8995,245.9926,79.6861,246.2602,80.5165,246.3765,81.0831,246.2448,82.0168" style="stroke:#2E2E2E;stroke-width:1.0416666666666667;"/><text fill="#FFFFFF" font-family="Segoe Print" font-size="11.4583" lengthAdjust="spacing" textLength="10.4167" x="256.7708" y="83.8699">id</text><path d="M232.8125,95.9473 L232.8125,96.2392 L243.2292,95.3718 L253.6458,96.2157 L264.0625,96.5024 L274.4792,94.9564 L284.8958,95.8393 L295.3125,95.3549 L305.7292,95.4146 L316.1458,95.8526 L326.5625,95.9473 " fill="#474747" style="stroke:#333333;stroke-width:1.0416666666666667;"/><polygon fill="none" points="246.3714,114.314,245.9134,114.9399,245.3716,115.8566,244.5967,116.4744,243.7824,116.8123,243.1331,116.8416,242.2987,116.4191,241.5113,116.1431,240.9137,115.5826,240.6002,114.941,240.4143,114.4302,240.2322,113.7629,239.9365,113.1887,240.1637,112.628,240.3627,112.0139,241.1096,111.5282,241.6351,110.8979,242.2855,110.6887,243.0587,110.5084,244.0503,110.6155,244.5934,110.8716,245.2248,110.9877,245.9926,111.7743,246.2602,112.6047,246.3765,113.1713,246.2448,114.105" style="stroke:#2E2E2E;stroke-width:1.0416666666666667;"/><text fill="#FFFFFF" font-family="Segoe Print" font-size="11.4583" lengthAdjust="spacing" textLength="34.375" x="256.7708" y="115.9582">name</text><polygon fill="none" points="246.3714,138.0689,245.9134,138.6948,245.3716,139.6115,244.5967,140.2293,243.7824,140.5672,243.1331,140.5965,242.2987,140.174,241.5113,139.8979,240.9137,139.3375,240.6002,138.6959,240.4143,138.185,240.2322,137.5178,239.9365,136.9435,240.1637,136.3829,240.3627,135.7688,241.1096,135.283,241.6351,134.6528,242.2855,134.4435,243.0587,134.2633,244.0503,134.3704,244.5934,134.6265,245.2248,134.7426,245.9926,135.5292,246.2602,136.3596,246.3765,136.9262,246.2448,137.8599" style="stroke:#2E2E2E;stroke-width:1.0416666666666667;"/><text fill="#FFFFFF" font-family="Segoe Print" font-size="11.4583" lengthAdjust="spacing" textLength="59.375" x="256.7708" y="139.713">total_time</text></g><!--class EstimateLine--><g id="elem_EstimateLine"><polygon fill="#474747" points="224.4792,249.4792,224.4792,249.6981,234.517,249.0476,244.5549,249.6805,254.5928,249.8955,264.6307,248.736,274.6686,249.3982,284.7064,249.0349,294.7443,249.0797,304.7822,249.4082,314.8201,248.759,324.858,250.0559,334.8958,249.4792,334.8121,249.277,335.4588,249.6598,336.1317,250.1059,336.6522,250.1839,337.2619,250.4774,337.8421,250.6996,337.8319,250.6953,338.1435,251.3125,338.407,251.9098,338.7622,252.5451,339.0337,253.1457,339.0625,253.6458,339.7701,253.6458,339.3277,264.3978,339.5454,275.1497,339.794,285.9017,338.3113,296.6536,339.7693,307.4056,338.7536,318.1576,339.6186,328.9095,338.5469,339.6615,338.9911,350.4134,339.835,361.1654,339.0117,371.9173,339.1722,382.6693,339.4152,393.4212,339.4961,404.1732,339.0625,414.9251,339.0612,414.9246,338.9106,415.5525,338.3907,416.0276,338.4215,416.7307,338.262,417.355,337.8421,417.8714,337.9012,418.014,337.3343,418.3121,336.5994,418.2046,335.9877,418.3944,335.4025,418.6484,334.8958,419.0918,334.8958,419.0305,324.858,418.8871,314.8201,419.8016,304.7822,418.9098,294.7443,418.7344,284.7064,419.3296,274.6686,418.3972,264.6307,418.551,254.5928,419.7678,244.5549,419.5456,234.517,419.8569,224.4792,419.0918,224.4364,418.9886,223.9323,418.9501,223.3791,418.793,222.6486,418.208,222.1094,418.0847,221.5329,417.8714,221.5733,417.8881,221.4979,417.3688,221.0434,416.6923,220.949,416.1651,220.3789,415.4408,220.3125,414.9251,219.607,414.9251,220.8371,404.1732,219.5657,393.4212,220.8427,382.6693,220.5277,371.9173,220.0334,361.1654,219.944,350.4134,220.7904,339.6615,220.0007,328.9095,220.929,318.1576,219.7367,307.4056,220.9557,296.6536,220.817,285.9017,220.5677,275.1497,220.3617,264.3978,220.3125,253.6458,220.5456,253.7424,220.7534,253.1381,220.855,252.4898,221.1308,251.9137,221.247,251.2715,221.5329,250.6996,221.6281,250.9294,222.1427,250.5052,222.7343,250.2668,223.2198,249.7722,223.8361,249.5933,224.4792,249.4792" style="stroke:#333333;stroke-width:1.0416666666666667;"/><polygon fill="none" points="245.37,269.0987,243.8431,271.185,242.0371,274.2408,239.4542,276.3002,236.7399,277.4263,234.5758,277.5241,231.7942,276.1156,229.1697,275.1955,227.1776,273.3274,226.1326,271.1888,225.5129,269.4859,224.9058,267.2616,223.9204,265.3476,224.6777,263.4788,225.3411,261.4316,227.8308,259.8126,229.5824,257.7118,231.7504,257.0142,234.3278,256.4135,237.633,256.7704,239.4433,257.6242,241.548,258.0111,244.1072,260.6331,244.9993,263.4011,245.3869,265.2897,244.9479,268.4019" style="stroke:#2E2E2E;stroke-width:1.0416666666666667;"/><path d="M234.196,267.1672 L235.2539,267.1672 L235.2539,267.2648 C235.2539,267.5578 235.2865,267.6717 235.3516,267.7856 C235.4655,267.981 235.6771,268.0786 235.8887,268.0786 C236.0677,268.0786 236.263,267.981 236.377,267.8182 C236.4746,267.7043 236.4909,267.5903 236.4909,267.2648 L236.4909,265.8488 C236.4909,265.7349 236.4909,265.7023 236.4909,265.5884 C236.4258,265.2303 236.2142,265.0187 235.8724,265.0187 C235.6771,265.0187 235.498,265.1164 235.3678,265.2791 C235.2865,265.3931 235.2539,265.507 235.2539,265.8488 L235.2539,265.9302 L234.196,265.9302 L234.196,264.1724 L237.1257,264.1724 L237.1257,264.7909 C237.1257,265.1001 237.1419,265.2303 237.207,265.328 C237.3372,265.5233 237.5326,265.6372 237.7441,265.6372 C237.9395,265.6372 238.1348,265.5396 238.265,265.3768 C238.3464,265.2466 238.3789,265.1489 238.3789,264.7909 L238.3789,262.9191 L232.7637,262.9191 C232.4382,262.9191 232.3405,262.9354 232.2266,263.0168 C232.0475,263.1307 231.9336,263.3423 231.9336,263.5539 C231.9336,263.7492 232.0313,263.9282 232.194,264.0584 C232.3079,264.1561 232.4382,264.1724 232.7637,264.1724 L232.9427,264.1724 L232.9427,268.9575 L232.7637,268.9575 C232.4544,268.9575 232.3405,268.9738 232.2266,269.0552 C232.0475,269.1691 231.9336,269.3807 231.9336,269.5923 C231.9336,269.7876 232.0313,269.9666 232.194,270.0806 C232.2917,270.1782 232.4707,270.2108 232.7637,270.2108 L238.6393,270.2108 L238.6393,268.3065 C238.6393,267.9972 238.623,267.8833 238.5579,267.7694 C238.4277,267.5903 238.2324,267.4764 238.0208,267.4764 C237.8255,267.4764 237.6302,267.5578 237.5163,267.7368 C237.4186,267.867 237.4023,267.9647 237.4023,268.3065 L237.4023,268.9575 L234.196,268.9575 L234.196,267.1672 Z " fill="#FFFFFF"/><text fill="#FFFFFF" font-family="Segoe Print" font-size="11.4583" lengthAdjust="spacing" textLength="77.0833" x="253.6458" y="270.5317">EstimateLine</text><path d="M221.3542,283.6507 L221.3542,283.9426 L231.9602,283.0753 L242.5663,283.9192 L253.1723,284.2058 L263.7784,282.6599 L274.3845,283.5428 L284.9905,283.0584 L295.5966,283.1181 L306.2027,283.5561 L316.8087,282.6905 L327.4148,284.4197 L338.0208,283.6507 " fill="#474747" style="stroke:#333333;stroke-width:1.0416666666666667;"/><polygon fill="none" points="234.9131,302.0174,234.455,302.6433,233.9132,303.5601,233.1383,304.1779,232.3241,304.5157,231.6748,304.5451,230.8403,304.1225,230.053,303.8465,229.4554,303.2861,229.1419,302.6445,228.956,302.1336,228.7738,301.4663,228.4782,300.8921,228.7054,300.3315,228.9044,299.7173,229.6513,299.2316,230.1768,298.6014,230.8272,298.3921,231.6004,298.2119,232.592,298.319,233.1351,298.5751,233.7665,298.6912,234.5342,299.4778,234.8019,300.3082,234.9182,300.8748,234.7864,301.8084" style="stroke:#2E2E2E;stroke-width:1.0416666666666667;"/><text fill="#FFFFFF" font-family="Segoe Print" font-size="11.4583" lengthAdjust="spacing" textLength="10.4167" x="245.3125" y="303.6616">id</text><path d="M221.3542,315.7389 L221.3542,316.0309 L231.9602,315.1635 L242.5663,316.0074 L253.1723,316.294 L263.7784,314.7481 L274.3845,315.631 L284.9905,315.1466 L295.5966,315.2063 L306.2027,315.6443 L316.8087,314.7787 L327.4148,316.5079 L338.0208,315.7389 " fill="#474747" style="stroke:#333333;stroke-width:1.0416666666666667;"/><polygon fill="none" points="234.9131,334.1057,234.455,334.7316,233.9132,335.6483,233.1383,336.2661,232.3241,336.604,231.6748,336.6333,230.8403,336.2108,230.053,335.9347,229.4554,335.3743,229.1419,334.7327,228.956,334.2218,228.7738,333.5545,228.4782,332.9803,228.7054,332.4197,228.9044,331.8055,229.6513,331.3198,230.1768,330.6896,230.8272,330.4803,231.6004,330.3001,232.592,330.4072,233.1351,330.6633,233.7665,330.7794,234.5342,331.566,234.8019,332.3964,234.9182,332.963,234.7864,333.8966" style="stroke:#2E2E2E;stroke-width:1.0416666666666667;"/><text fill="#FFFFFF" font-family="Segoe Print" font-size="11.4583" lengthAdjust="spacing" textLength="29.1667" x="245.3125" y="335.7498">label</text><polygon fill="none" points="234.9131,357.8605,234.455,358.4864,233.9132,359.4032,233.1383,360.021,232.3241,360.3588,231.6748,360.3882,230.8403,359.9656,230.053,359.6896,229.4554,359.1292,229.1419,358.4876,228.956,357.9767,228.7738,357.3094,228.4782,356.7352,228.7054,356.1746,228.9044,355.5604,229.6513,355.0747,230.1768,354.4445,230.8272,354.2352,231.6004,354.055,232.592,354.1621,233.1351,354.4182,233.7665,354.5343,234.5342,355.3209,234.8019,356.1513,234.9182,356.7179,234.7864,357.6515" style="stroke:#2E2E2E;stroke-width:1.0416666666666667;"/><text fill="#FFFFFF" font-family="Segoe Print" font-size="11.4583" lengthAdjust="spacing" textLength="27.0833" x="245.3125" y="359.5047">time</text><polygon fill="none" points="234.9131,381.6154,234.455,382.2413,233.9132,383.1581,233.1383,383.7759,232.3241,384.1137,231.6748,384.143,230.8403,383.7205,230.053,383.4445,229.4554,382.8841,229.1419,382.2425,228.956,381.7316,228.7738,381.0643,228.4782,380.4901,228.7054,379.9295,228.9044,379.3153,229.6513,378.8296,230.1768,378.1994,230.8272,377.9901,231.6004,377.8099,232.592,377.9169,233.1351,378.1731,233.7665,378.2892,234.5342,379.0758,234.8019,379.9061,234.9182,380.4727,234.7864,381.4064" style="stroke:#2E2E2E;stroke-width:1.0416666666666667;"/><text fill="#FFFFFF" font-family="Segoe Print" font-size="11.4583" lengthAdjust="spacing" textLength="27.0833" x="245.3125" y="383.2596">type</text><polygon fill="none" points="234.9131,405.3703,234.455,405.9962,233.9132,406.9129,233.1383,407.5308,232.3241,407.8686,231.6748,407.8979,230.8403,407.4754,230.053,407.1994,229.4554,406.6389,229.1419,405.9973,228.956,405.4865,228.7738,404.8192,228.4782,404.245,228.7054,403.6843,228.9044,403.0702,229.6513,402.5845,230.1768,401.9543,230.8272,401.745,231.6004,401.5647,232.592,401.6718,233.1351,401.928,233.7665,402.044,234.5342,402.8306,234.8019,403.661,234.9182,404.2276,234.7864,405.1613" style="stroke:#2E2E2E;stroke-width:1.0416666666666667;"/><text fill="#FFFFFF" font-family="Segoe Print" font-size="11.4583" lengthAdjust="spacing" textLength="69.7917" x="245.3125" y="407.0145">estimate_id</text></g><!--link Estimate to EstimateLine--><g id="link_Estimate_EstimateLine"><path d="M279.6875,160.174 L279.9794,160.174 L279.1121,170.2504 L279.956,180.3268 L280.2426,190.4033 L278.6967,200.4797 L279.5796,210.5561 L279.0951,220.6326 L279.1549,230.709 L279.6875,240.7854 " fill="none" style="stroke:#333333;stroke-width:3.125;"/><path d="M275.5208,155.8813 L275.5208,155.9786 L277.1875,155.6894 L278.8542,155.9707 L280.5208,156.0663 L282.1875,155.551 L283.8542,155.8813 " fill="none" style="stroke:#333333;stroke-width:3.125;"/><path d="M275.5208,159.0063 L275.5208,159.1036 L277.1875,158.8144 L278.8542,159.0957 L280.5208,159.1913 L282.1875,158.676 L283.8542,159.0063 " fill="none" style="stroke:#333333;stroke-width:3.125;"/><path d="M279.6875,160.0479 L279.7848,160.0479 L279.4957,158.3813 L279.777,156.7146 L279.8725,155.0479 L279.3572,153.3813 L279.6875,151.7146 " fill="none" style="stroke:#333333;stroke-width:3.125;"/><path d="M279.6875,241.076 L279.7653,241.1344 L280.784,242.6276 L282.2591,244.4631 L283.5855,246.1871 L284.4233,247.5445 L285.9375,249.4094 " fill="none" style="stroke:#333333;stroke-width:3.125;"/><path d="M279.6875,241.076 L279.7653,241.1344 L278.284,242.6276 L277.2591,244.4631 L276.0855,246.1871 L274.4233,247.5445 L273.4375,249.4094 " fill="none" style="stroke:#333333;stroke-width:3.125;"/><path d="M279.6875,241.076 L279.7848,241.076 L279.4957,242.7427 L279.777,244.4094 L279.8725,246.076 L279.3572,247.7427 L279.6875,249.4094 " fill="none" style="stroke:#333333;stroke-width:3.125;"/><polygon fill="none" points="283.8772,235.8395,283.2664,236.6741,282.544,237.8964,281.5108,238.7201,280.4251,239.1706,279.5595,239.2097,278.4469,238.6463,277.397,238.2783,276.6002,237.531,276.1822,236.6756,275.9343,235.9944,275.6915,235.1047,275.2973,234.3391,275.6002,233.5916,275.8656,232.7727,276.8615,232.1251,277.5621,231.2848,278.4293,231.0058,279.4603,230.7655,280.7823,230.9082,281.5065,231.2497,282.3484,231.4045,283.372,232.4533,283.7289,233.5605,283.8839,234.3159,283.7083,235.5608" style="stroke:#333333;stroke-width:3.125;"/></g><!--link EstimateField to EstimatePresetValue--><g id="link_EstimateField_EstimatePresetValue"><path d="M100.5208,172.6438 L100.6181,172.6438 L100.329,181.5917 L100.6103,190.5396 L100.7059,199.4875 L100.1906,208.4354 L100.5208,217.3833 " fill="none" style="stroke:#333333;stroke-width:3.125;"/><path d="M96.3542,168.0135 L96.3542,168.1108 L98.0208,167.8217 L99.6875,168.103 L101.3542,168.1986 L103.0208,167.6833 L104.6875,168.0135 " fill="none" style="stroke:#333333;stroke-width:3.125;"/><path d="M96.3542,171.1385 L96.3542,171.2358 L98.0208,170.9467 L99.6875,171.228 L101.3542,171.3236 L103.0208,170.8083 L104.6875,171.1385 " fill="none" style="stroke:#333333;stroke-width:3.125;"/><path d="M100.5208,172.1802 L100.6181,172.1802 L100.329,170.5135 L100.6103,168.8469 L100.7059,167.1802 L100.1906,165.5135 L100.5208,163.8469 " fill="none" style="stroke:#333333;stroke-width:3.125;"/><path d="M100.5208,217.4375 L100.5987,217.4959 L101.6174,218.9891 L103.0924,220.8245 L104.4189,222.5485 L105.2566,223.906 L106.7708,225.7708 " fill="none" style="stroke:#333333;stroke-width:3.125;"/><path d="M100.5208,217.4375 L100.5987,217.4959 L99.1174,218.9891 L98.0924,220.8245 L96.9189,222.5485 L95.2566,223.906 L94.2708,225.7708 " fill="none" style="stroke:#333333;stroke-width:3.125;"/><path d="M100.5208,217.4375 L100.6181,217.4375 L100.329,219.1042 L100.6103,220.7708 L100.7059,222.4375 L100.1906,224.1042 L100.5208,225.7708 " fill="none" style="stroke:#333333;stroke-width:3.125;"/><polygon fill="none" points="104.7105,212.201,104.0998,213.0355,103.3774,214.2578,102.3442,215.0816,101.2585,215.532,100.3928,215.5711,99.2802,215.0078,98.2304,214.6397,97.4335,213.8925,97.0156,213.037,96.7677,212.3559,96.5248,211.4662,96.1307,210.7006,96.4336,209.953,96.6989,209.1342,97.6948,208.4865,98.3954,207.6462,99.2626,207.3672,100.2936,207.1269,101.6157,207.2697,102.3398,207.6112,103.1817,207.766,104.2054,208.8148,104.5622,209.922,104.7173,210.6774,104.5416,211.9223" style="stroke:#333333;stroke-width:3.125;"/></g><!--SRC=[VP3D3i8W48JlF0LUJNWCFNdmv9LWExP4-fEoDI6jxoxR4cE3Uc5d0_Fji3kgqK3wEwYeWn1eoLAG1q-sCOIZXIlb9AJSspAUIh5iJGEkteqLLmezn3CpdmTuqCMu4Hd2cIiSYmTVHn4jN3oPWSPUfvOwCaxt68h8DjKo5GclRnnEHsW- -cVa5RZGSzV9jd-IfaZhRpzph0dUe-TPgMxQGCLsd-d5jqMz0000]--></g></svg>