<?xml version="1.0" encoding="us-ascii" standalone="no"?><svg xmlns="http://www.w3.org/2000/svg" xmlns:xlink="http://www.w3.org/1999/xlink" contentStyleType="text/css" height="349px" preserveAspectRatio="none" style="width:370px;height:349px;background:#FFFFFF;" version="1.1" viewBox="0 0 370 349" width="370px" zoomAndPan="magnify"><defs/><g><!--class EstimateField--><g id="elem_EstimateField"><rect codeLine="3" fill="#F1F1F1" height="113.1875" id="EstimateField" rx="3.5" ry="3.5" style="stroke:#181818;stroke-width:0.5;" width="131" x="44.4719" y="7"/><ellipse cx="59.4719" cy="23" fill="#ADD1B2" rx="11" ry="11" style="stroke:#181818;stroke-width:1.0;"/><path d="M58.2688,23.875 L59.7219,23.875 L59.7219,23.9844 C59.7219,24.3906 59.7531,24.5469 59.8313,24.7031 C59.9875,24.9531 60.2688,25.1094 60.5656,25.1094 C60.8156,25.1094 61.0813,24.9688 61.2375,24.75 C61.3625,24.5938 61.3938,24.4375 61.3938,23.9844 L61.3938,22.0625 C61.3938,21.9063 61.3938,21.8594 61.3781,21.7031 C61.3156,21.2344 61.0031,20.9219 60.55,20.9219 C60.3,20.9219 60.0344,21.0625 59.8625,21.2813 C59.7531,21.4531 59.7219,21.6094 59.7219,22.0625 L59.7219,22.1875 L58.2688,22.1875 L58.2688,19.7813 L62.2531,19.7813 L62.2531,20.6406 C62.2531,21.0469 62.2844,21.2188 62.3625,21.375 C62.5344,21.625 62.8156,21.7813 63.0969,21.7813 C63.3625,21.7813 63.6281,21.6406 63.8,21.4219 C63.9094,21.25 63.9406,21.1094 63.9406,20.6406 L63.9406,18.0938 L56.3156,18.0938 C55.8781,18.0938 55.7531,18.1094 55.5969,18.2031 C55.3469,18.3594 55.1906,18.6563 55.1906,18.9375 C55.1906,19.2188 55.3313,19.4688 55.55,19.6406 C55.7063,19.75 55.8938,19.7813 56.3156,19.7813 L56.5656,19.7813 L56.5656,26.2969 L56.3156,26.2969 C55.9094,26.2969 55.7531,26.3125 55.5969,26.4219 C55.3469,26.5938 55.1906,26.8594 55.1906,27.1563 C55.1906,27.4219 55.3313,27.6719 55.55,27.8281 C55.6906,27.9531 55.925,28 56.3156,28 L64.3156,28 L64.3156,25.4219 C64.3156,24.9844 64.2844,24.8438 64.2063,24.6875 C64.0344,24.4375 63.7531,24.2813 63.4719,24.2813 C63.2063,24.2813 62.9406,24.3906 62.7688,24.6406 C62.6594,24.7969 62.6281,24.9375 62.6281,25.4219 L62.6281,26.2969 L58.2688,26.2969 L58.2688,23.875 Z " fill="#000000"/><text fill="#000000" font-family="sans-serif" font-size="14" lengthAdjust="spacing" textLength="99" x="73.4719" y="27.8467">EstimateField</text><line style="stroke:#181818;stroke-width:0.5;" x1="45.4719" x2="174.4719" y1="39" y2="39"/><ellipse cx="55.4719" cy="52.6484" fill="#000000" rx="3" ry="3" style="stroke:#000000;stroke-width:1.0;"/><text fill="#000000" font-family="sans-serif" font-size="14" lengthAdjust="spacing" textLength="13" x="64.4719" y="55.9951">id</text><line style="stroke:#181818;stroke-width:1.0;" x1="45.4719" x2="174.4719" y1="63.2969" y2="63.2969"/><ellipse cx="55.4719" cy="76.9453" fill="#000000" rx="3" ry="3" style="stroke:#000000;stroke-width:1.0;"/><text fill="#000000" font-family="sans-serif" font-size="14" lengthAdjust="spacing" textLength="40" x="64.4719" y="80.292">name</text><ellipse cx="55.4719" cy="93.2422" fill="#000000" rx="3" ry="3" style="stroke:#000000;stroke-width:1.0;"/><text fill="#000000" font-family="sans-serif" font-size="14" lengthAdjust="spacing" textLength="28" x="64.4719" y="96.5889">slug</text><ellipse cx="55.4719" cy="109.5391" fill="#000000" rx="3" ry="3" style="stroke:#000000;stroke-width:1.0;"/><text fill="#000000" font-family="sans-serif" font-size="14" lengthAdjust="spacing" textLength="34" x="64.4719" y="112.8857">type</text></g><!--class EstimatePresetValue--><g id="elem_EstimatePresetValue"><rect codeLine="11" fill="#F1F1F1" height="162.0781" id="EstimatePresetValue" rx="3.5" ry="3.5" style="stroke:#181818;stroke-width:0.5;" width="183" x="18.4719" y="180"/><ellipse cx="33.4719" cy="196" fill="#ADD1B2" rx="11" ry="11" style="stroke:#181818;stroke-width:1.0;"/><path d="M32.2688,196.875 L33.7219,196.875 L33.7219,196.9844 C33.7219,197.3906 33.7531,197.5469 33.8313,197.7031 C33.9875,197.9531 34.2688,198.1094 34.5656,198.1094 C34.8156,198.1094 35.0813,197.9688 35.2375,197.75 C35.3625,197.5938 35.3938,197.4375 35.3938,196.9844 L35.3938,195.0625 C35.3938,194.9063 35.3938,194.8594 35.3781,194.7031 C35.3156,194.2344 35.0031,193.9219 34.55,193.9219 C34.3,193.9219 34.0344,194.0625 33.8625,194.2813 C33.7531,194.4531 33.7219,194.6094 33.7219,195.0625 L33.7219,195.1875 L32.2688,195.1875 L32.2688,192.7813 L36.2531,192.7813 L36.2531,193.6406 C36.2531,194.0469 36.2844,194.2188 36.3625,194.375 C36.5344,194.625 36.8156,194.7813 37.0969,194.7813 C37.3625,194.7813 37.6281,194.6406 37.8,194.4219 C37.9094,194.25 37.9406,194.1094 37.9406,193.6406 L37.9406,191.0938 L30.3156,191.0938 C29.8781,191.0938 29.7531,191.1094 29.5969,191.2031 C29.3469,191.3594 29.1906,191.6563 29.1906,191.9375 C29.1906,192.2188 29.3312,192.4688 29.55,192.6406 C29.7062,192.75 29.8937,192.7813 30.3156,192.7813 L30.5656,192.7813 L30.5656,199.2969 L30.3156,199.2969 C29.9094,199.2969 29.7531,199.3125 29.5969,199.4219 C29.3469,199.5938 29.1906,199.8594 29.1906,200.1563 C29.1906,200.4219 29.3312,200.6719 29.55,200.8281 C29.6906,200.9531 29.925,201 30.3156,201 L38.3156,201 L38.3156,198.4219 C38.3156,197.9844 38.2844,197.8438 38.2063,197.6875 C38.0344,197.4375 37.7531,197.2813 37.4719,197.2813 C37.2063,197.2813 36.9406,197.3906 36.7688,197.6406 C36.6594,197.7969 36.6281,197.9375 36.6281,198.4219 L36.6281,199.2969 L32.2688,199.2969 L32.2688,196.875 Z " fill="#000000"/><text fill="#000000" font-family="sans-serif" font-size="14" lengthAdjust="spacing" textLength="151" x="47.4719" y="200.8467">EstimatePresetValue</text><line style="stroke:#181818;stroke-width:0.5;" x1="19.4719" x2="200.4719" y1="212" y2="212"/><ellipse cx="29.4719" cy="225.6484" fill="#000000" rx="3" ry="3" style="stroke:#000000;stroke-width:1.0;"/><text fill="#000000" font-family="sans-serif" font-size="14" lengthAdjust="spacing" textLength="13" x="38.4719" y="228.9951">id</text><line style="stroke:#181818;stroke-width:1.0;" x1="19.4719" x2="200.4719" y1="236.2969" y2="236.2969"/><ellipse cx="29.4719" cy="249.9453" fill="#000000" rx="3" ry="3" style="stroke:#000000;stroke-width:1.0;"/><text fill="#000000" font-family="sans-serif" font-size="14" lengthAdjust="spacing" textLength="35" x="38.4719" y="253.292">label</text><ellipse cx="29.4719" cy="266.2422" fill="#000000" rx="3" ry="3" style="stroke:#000000;stroke-width:1.0;"/><text fill="#000000" font-family="sans-serif" font-size="14" lengthAdjust="spacing" textLength="37" x="38.4719" y="269.5889">value</text><text fill="#000000" font-family="sans-serif" font-size="14" lengthAdjust="spacing" textLength="34" x="38.4719" y="285.8857">time</text><text fill="#000000" font-family="sans-serif" font-size="14" lengthAdjust="spacing" textLength="94" x="38.4719" y="302.1826">startup_time</text><text fill="#000000" font-family="sans-serif" font-size="14" lengthAdjust="spacing" textLength="126" x="38.4719" y="318.4795">total_percentage</text><ellipse cx="29.4719" cy="331.4297" fill="#000000" rx="3" ry="3" style="stroke:#000000;stroke-width:1.0;"/><text fill="#000000" font-family="sans-serif" font-size="14" lengthAdjust="spacing" textLength="124" x="38.4719" y="334.7764">estimate_field_id</text></g><!--class Estimate--><g id="elem_Estimate"><rect codeLine="22" fill="#F1F1F1" height="96.8906" id="Estimate" rx="3.5" ry="3.5" style="stroke:#181818;stroke-width:0.5;" width="102" x="248.9719" y="15"/><ellipse cx="266.2219" cy="31" fill="#ADD1B2" rx="11" ry="11" style="stroke:#181818;stroke-width:1.0;"/><path d="M265.0188,31.875 L266.4719,31.875 L266.4719,31.9844 C266.4719,32.3906 266.5031,32.5469 266.5813,32.7031 C266.7375,32.9531 267.0188,33.1094 267.3156,33.1094 C267.5656,33.1094 267.8313,32.9688 267.9875,32.75 C268.1125,32.5938 268.1438,32.4375 268.1438,31.9844 L268.1438,30.0625 C268.1438,29.9063 268.1438,29.8594 268.1281,29.7031 C268.0656,29.2344 267.7531,28.9219 267.3,28.9219 C267.05,28.9219 266.7844,29.0625 266.6125,29.2813 C266.5031,29.4531 266.4719,29.6094 266.4719,30.0625 L266.4719,30.1875 L265.0188,30.1875 L265.0188,27.7813 L269.0031,27.7813 L269.0031,28.6406 C269.0031,29.0469 269.0344,29.2188 269.1125,29.375 C269.2844,29.625 269.5656,29.7813 269.8469,29.7813 C270.1125,29.7813 270.3781,29.6406 270.55,29.4219 C270.6594,29.25 270.6906,29.1094 270.6906,28.6406 L270.6906,26.0938 L263.0656,26.0938 C262.6281,26.0938 262.5031,26.1094 262.3469,26.2031 C262.0969,26.3594 261.9406,26.6563 261.9406,26.9375 C261.9406,27.2188 262.0813,27.4688 262.3,27.6406 C262.4563,27.75 262.6438,27.7813 263.0656,27.7813 L263.3156,27.7813 L263.3156,34.2969 L263.0656,34.2969 C262.6594,34.2969 262.5031,34.3125 262.3469,34.4219 C262.0969,34.5938 261.9406,34.8594 261.9406,35.1563 C261.9406,35.4219 262.0813,35.6719 262.3,35.8281 C262.4406,35.9531 262.675,36 263.0656,36 L271.0656,36 L271.0656,33.4219 C271.0656,32.9844 271.0344,32.8438 270.9563,32.6875 C270.7844,32.4375 270.5031,32.2813 270.2219,32.2813 C269.9563,32.2813 269.6906,32.3906 269.5188,32.6406 C269.4094,32.7969 269.3781,32.9375 269.3781,33.4219 L269.3781,34.2969 L265.0188,34.2969 L265.0188,31.875 Z " fill="#000000"/><text fill="#000000" font-family="sans-serif" font-size="14" lengthAdjust="spacing" textLength="65" x="280.7219" y="35.8467">Estimate</text><line style="stroke:#181818;stroke-width:0.5;" x1="249.9719" x2="349.9719" y1="47" y2="47"/><ellipse cx="259.9719" cy="60.6484" fill="#000000" rx="3" ry="3" style="stroke:#000000;stroke-width:1.0;"/><text fill="#000000" font-family="sans-serif" font-size="14" lengthAdjust="spacing" textLength="13" x="268.9719" y="63.9951">id</text><line style="stroke:#181818;stroke-width:1.0;" x1="249.9719" x2="349.9719" y1="71.2969" y2="71.2969"/><ellipse cx="259.9719" cy="84.9453" fill="#000000" rx="3" ry="3" style="stroke:#000000;stroke-width:1.0;"/><text fill="#000000" font-family="sans-serif" font-size="14" lengthAdjust="spacing" textLength="40" x="268.9719" y="88.292">name</text><ellipse cx="259.9719" cy="101.2422" fill="#000000" rx="3" ry="3" style="stroke:#000000;stroke-width:1.0;"/><text fill="#000000" font-family="sans-serif" font-size="14" lengthAdjust="spacing" textLength="76" x="268.9719" y="104.5889">total_time</text></g><!--class EstimateLine--><g id="elem_EstimateLine"><rect codeLine="29" fill="#F1F1F1" height="129.4844" id="EstimateLine" rx="3.5" ry="3.5" style="stroke:#181818;stroke-width:0.5;" width="127" x="236.4719" y="196.5"/><ellipse cx="251.4719" cy="212.5" fill="#ADD1B2" rx="11" ry="11" style="stroke:#181818;stroke-width:1.0;"/><path d="M250.2688,213.375 L251.7219,213.375 L251.7219,213.4844 C251.7219,213.8906 251.7531,214.0469 251.8313,214.2031 C251.9875,214.4531 252.2688,214.6094 252.5656,214.6094 C252.8156,214.6094 253.0813,214.4688 253.2375,214.25 C253.3625,214.0938 253.3938,213.9375 253.3938,213.4844 L253.3938,211.5625 C253.3938,211.4063 253.3938,211.3594 253.3781,211.2031 C253.3156,210.7344 253.0031,210.4219 252.55,210.4219 C252.3,210.4219 252.0344,210.5625 251.8625,210.7813 C251.7531,210.9531 251.7219,211.1094 251.7219,211.5625 L251.7219,211.6875 L250.2688,211.6875 L250.2688,209.2813 L254.2531,209.2813 L254.2531,210.1406 C254.2531,210.5469 254.2844,210.7188 254.3625,210.875 C254.5344,211.125 254.8156,211.2813 255.0969,211.2813 C255.3625,211.2813 255.6281,211.1406 255.8,210.9219 C255.9094,210.75 255.9406,210.6094 255.9406,210.1406 L255.9406,207.5938 L248.3156,207.5938 C247.8781,207.5938 247.7531,207.6094 247.5969,207.7031 C247.3469,207.8594 247.1906,208.1563 247.1906,208.4375 C247.1906,208.7188 247.3313,208.9688 247.55,209.1406 C247.7063,209.25 247.8938,209.2813 248.3156,209.2813 L248.5656,209.2813 L248.5656,215.7969 L248.3156,215.7969 C247.9094,215.7969 247.7531,215.8125 247.5969,215.9219 C247.3469,216.0938 247.1906,216.3594 247.1906,216.6563 C247.1906,216.9219 247.3313,217.1719 247.55,217.3281 C247.6906,217.4531 247.925,217.5 248.3156,217.5 L256.3156,217.5 L256.3156,214.9219 C256.3156,214.4844 256.2844,214.3438 256.2063,214.1875 C256.0344,213.9375 255.7531,213.7813 255.4719,213.7813 C255.2063,213.7813 254.9406,213.8906 254.7688,214.1406 C254.6594,214.2969 254.6281,214.4375 254.6281,214.9219 L254.6281,215.7969 L250.2688,215.7969 L250.2688,213.375 Z " fill="#000000"/><text fill="#000000" font-family="sans-serif" font-size="14" lengthAdjust="spacing" textLength="95" x="265.4719" y="217.3467">EstimateLine</text><line style="stroke:#181818;stroke-width:0.5;" x1="237.4719" x2="362.4719" y1="228.5" y2="228.5"/><ellipse cx="247.4719" cy="242.1484" fill="#000000" rx="3" ry="3" style="stroke:#000000;stroke-width:1.0;"/><text fill="#000000" font-family="sans-serif" font-size="14" lengthAdjust="spacing" textLength="13" x="256.4719" y="245.4951">id</text><line style="stroke:#181818;stroke-width:1.0;" x1="237.4719" x2="362.4719" y1="252.7969" y2="252.7969"/><ellipse cx="247.4719" cy="266.4453" fill="#000000" rx="3" ry="3" style="stroke:#000000;stroke-width:1.0;"/><text fill="#000000" font-family="sans-serif" font-size="14" lengthAdjust="spacing" textLength="35" x="256.4719" y="269.792">label</text><ellipse cx="247.4719" cy="282.7422" fill="#000000" rx="3" ry="3" style="stroke:#000000;stroke-width:1.0;"/><text fill="#000000" font-family="sans-serif" font-size="14" lengthAdjust="spacing" textLength="34" x="256.4719" y="286.0889">time</text><ellipse cx="247.4719" cy="299.0391" fill="#000000" rx="3" ry="3" style="stroke:#000000;stroke-width:1.0;"/><text fill="#000000" font-family="sans-serif" font-size="14" lengthAdjust="spacing" textLength="34" x="256.4719" y="302.3857">type</text><ellipse cx="247.4719" cy="315.3359" fill="#000000" rx="3" ry="3" style="stroke:#000000;stroke-width:1.0;"/><text fill="#000000" font-family="sans-serif" font-size="14" lengthAdjust="spacing" textLength="85" x="256.4719" y="318.6826">estimate_id</text></g><!--link Estimate to EstimateLine--><g id="link_Estimate_EstimateLine"><path codeLine="38" d="M299.9719,112.075 C299.9719,137.392 299.9719,168.871 299.9719,196.273 " fill="none" id="Estimate-EstimateLine" style="stroke:#454645;stroke-width:1.0;"/><text fill="#000000" font-family="sans-serif" font-size="13" lengthAdjust="spacing" textLength="95" x="198.2922" y="132.0445">Contains (0, N)</text><text fill="#000000" font-family="sans-serif" font-size="13" lengthAdjust="spacing" textLength="81" x="214.5422" y="185.4208">Line of (1, 1)</text></g><!--link EstimateField to EstimatePresetValue--><g id="link_EstimateField_EstimatePresetValue"><path codeLine="39" d="M109.9719,120.261 C109.9719,138.77 109.9719,159.759 109.9719,179.74 " fill="none" id="EstimateField-EstimatePresetValue" style="stroke:#454645;stroke-width:1.0;"/><text fill="#000000" font-family="sans-serif" font-size="13" lengthAdjust="spacing" textLength="98" x="6" y="140.1564">Proposes (0, N)</text><text fill="#000000" font-family="sans-serif" font-size="13" lengthAdjust="spacing" textLength="91" x="14.9195" y="168.9041">Value of (1, 1)</text></g><!--SRC=[VP313e8m38RlUuhA2GqayWn6JyPmyag655qojcKh9CJuxcv030JridOi_VwFRkY13K8dIiiLCOQA1FLmT2GQJdWIA2juCe2TgFoPfg5LlC5GdMpleL9laBrMmxb5XtJbiiKLGl8IPMYwyEmRFnAA8swfDSLq9KrS5WRjpRFvVKZ52L_KGQxmq7NqJ-KHED3NKsUX_fXEIkFVpZr6WqzqTD3ULIW7yJw1opRo88W6jguXpXB8_BTv9bkkEygjDjhX4Z3kyGjXjkOt]--></g></svg>