<?xml version="1.0" encoding="UTF-8" standalone="no"?><svg xmlns="http://www.w3.org/2000/svg" xmlns:xlink="http://www.w3.org/1999/xlink" contentStyleType="text/css" height="317px" preserveAspectRatio="none" style="width:344px;height:317px;background:#FFFFFF;" version="1.1" viewBox="0 0 344 317" width="344px" zoomAndPan="magnify"><defs/><g><!--MD5=[64114665a2fd6e3db892f9218d62d3f3]
class EstimateField--><g id="elem_EstimateField"><rect codeLine="1" fill="#F1F1F1" height="96.8906" id="EstimateField" rx="2.5" ry="2.5" style="stroke:#181818;stroke-width:0.5;" width="124" x="32.5" y="7"/><ellipse cx="47.5" cy="23" fill="#ADD1B2" rx="11" ry="11" style="stroke:#181818;stroke-width:1.0;"/><path d="M50.4688,28.6406 Q49.8906,28.9375 49.25,29.0781 Q48.6094,29.2344 47.9063,29.2344 Q45.4063,29.2344 44.0781,27.5938 Q42.7656,25.9375 42.7656,22.8125 Q42.7656,19.6875 44.0781,18.0313 Q45.4063,16.375 47.9063,16.375 Q48.6094,16.375 49.25,16.5313 Q49.9063,16.6875 50.4688,16.9844 L50.4688,19.7031 Q49.8438,19.125 49.25,18.8594 Q48.6563,18.5781 48.0313,18.5781 Q46.6875,18.5781 46,19.6563 Q45.3125,20.7188 45.3125,22.8125 Q45.3125,24.9063 46,25.9844 Q46.6875,27.0469 48.0313,27.0469 Q48.6563,27.0469 49.25,26.7813 Q49.8438,26.5 50.4688,25.9219 L50.4688,28.6406 Z " fill="#000000"/><text fill="#000000" font-family="sans-serif" font-size="14" lengthAdjust="spacing" textLength="92" x="61.5" y="27.8467">EstimateField</text><line style="stroke:#181818;stroke-width:0.5;" x1="33.5" x2="155.5" y1="39" y2="39"/><ellipse cx="43.5" cy="52.6484" fill="none" rx="3" ry="3" style="stroke:#038048;stroke-width:1.0;"/><text fill="#000000" font-family="sans-serif" font-size="14" lengthAdjust="spacing" textLength="39" x="52.5" y="55.9951">name</text><ellipse cx="43.5" cy="68.9453" fill="none" rx="3" ry="3" style="stroke:#038048;stroke-width:1.0;"/><text fill="#000000" font-family="sans-serif" font-size="14" lengthAdjust="spacing" textLength="29" x="52.5" y="72.292">slug</text><ellipse cx="43.5" cy="85.2422" fill="none" rx="3" ry="3" style="stroke:#038048;stroke-width:1.0;"/><text fill="#000000" font-family="sans-serif" font-size="14" lengthAdjust="spacing" textLength="30" x="52.5" y="88.5889">type</text><line style="stroke:#181818;stroke-width:0.5;" x1="33.5" x2="155.5" y1="95.8906" y2="95.8906"/></g><!--MD5=[83b3cb6c0a4f6cb74ab827a2fd2677da]
class EstimatePresetValue--><g id="elem_EstimatePresetValue"><rect codeLine="7" fill="#F1F1F1" height="129.4844" id="EstimatePresetValue" rx="2.5" ry="2.5" style="stroke:#181818;stroke-width:0.5;" width="175" x="7" y="181"/><ellipse cx="22" cy="197" fill="#ADD1B2" rx="11" ry="11" style="stroke:#181818;stroke-width:1.0;"/><path d="M24.9688,202.6406 Q24.3906,202.9375 23.75,203.0781 Q23.1094,203.2344 22.4063,203.2344 Q19.9063,203.2344 18.5781,201.5938 Q17.2656,199.9375 17.2656,196.8125 Q17.2656,193.6875 18.5781,192.0313 Q19.9063,190.375 22.4063,190.375 Q23.1094,190.375 23.75,190.5313 Q24.4063,190.6875 24.9688,190.9844 L24.9688,193.7031 Q24.3438,193.125 23.75,192.8594 Q23.1563,192.5781 22.5313,192.5781 Q21.1875,192.5781 20.5,193.6563 Q19.8125,194.7188 19.8125,196.8125 Q19.8125,198.9063 20.5,199.9844 Q21.1875,201.0469 22.5313,201.0469 Q23.1563,201.0469 23.75,200.7813 Q24.3438,200.5 24.9688,199.9219 L24.9688,202.6406 Z " fill="#000000"/><text fill="#000000" font-family="sans-serif" font-size="14" lengthAdjust="spacing" textLength="143" x="36" y="201.8467">EstimatePresetValue</text><line style="stroke:#181818;stroke-width:0.5;" x1="8" x2="181" y1="213" y2="213"/><ellipse cx="18" cy="226.6484" fill="none" rx="3" ry="3" style="stroke:#038048;stroke-width:1.0;"/><text fill="#000000" font-family="sans-serif" font-size="14" lengthAdjust="spacing" textLength="32" x="27" y="229.9951">label</text><ellipse cx="18" cy="242.9453" fill="none" rx="3" ry="3" style="stroke:#038048;stroke-width:1.0;"/><text fill="#000000" font-family="sans-serif" font-size="14" lengthAdjust="spacing" textLength="36" x="27" y="246.292">value</text><ellipse cx="18" cy="259.2422" fill="none" rx="3" ry="3" style="stroke:#038048;stroke-width:1.0;"/><text fill="#000000" font-family="sans-serif" font-size="14" lengthAdjust="spacing" textLength="30" x="27" y="262.5889">time</text><ellipse cx="18" cy="275.5391" fill="none" rx="3" ry="3" style="stroke:#038048;stroke-width:1.0;"/><text fill="#000000" font-family="sans-serif" font-size="14" lengthAdjust="spacing" textLength="86" x="27" y="278.8857">startup_time</text><ellipse cx="18" cy="291.8359" fill="none" rx="3" ry="3" style="stroke:#038048;stroke-width:1.0;"/><text fill="#000000" font-family="sans-serif" font-size="14" lengthAdjust="spacing" textLength="117" x="27" y="295.1826">total_percentage</text><line style="stroke:#181818;stroke-width:0.5;" x1="8" x2="181" y1="302.4844" y2="302.4844"/></g><!--MD5=[13c70558fd034f6c16cf6afca856b697]
class Estimate--><g id="elem_Estimate"><rect codeLine="15" fill="#F1F1F1" height="80.5938" id="Estimate" rx="2.5" ry="2.5" style="stroke:#181818;stroke-width:0.5;" width="93" x="231" y="15"/><ellipse cx="246.45" cy="31" fill="#ADD1B2" rx="11" ry="11" style="stroke:#181818;stroke-width:1.0;"/><path d="M249.4188,36.6406 Q248.8406,36.9375 248.2,37.0781 Q247.5594,37.2344 246.8563,37.2344 Q244.3563,37.2344 243.0281,35.5938 Q241.7156,33.9375 241.7156,30.8125 Q241.7156,27.6875 243.0281,26.0313 Q244.3563,24.375 246.8563,24.375 Q247.5594,24.375 248.2,24.5313 Q248.8563,24.6875 249.4188,24.9844 L249.4188,27.7031 Q248.7938,27.125 248.2,26.8594 Q247.6063,26.5781 246.9813,26.5781 Q245.6375,26.5781 244.95,27.6563 Q244.2625,28.7188 244.2625,30.8125 Q244.2625,32.9063 244.95,33.9844 Q245.6375,35.0469 246.9813,35.0469 Q247.6063,35.0469 248.2,34.7813 Q248.7938,34.5 249.4188,33.9219 L249.4188,36.6406 Z " fill="#000000"/><text fill="#000000" font-family="sans-serif" font-size="14" lengthAdjust="spacing" textLength="60" x="260.55" y="35.8467">Estimate</text><line style="stroke:#181818;stroke-width:0.5;" x1="232" x2="323" y1="47" y2="47"/><ellipse cx="242" cy="60.6484" fill="none" rx="3" ry="3" style="stroke:#038048;stroke-width:1.0;"/><text fill="#000000" font-family="sans-serif" font-size="14" lengthAdjust="spacing" textLength="39" x="251" y="63.9951">name</text><ellipse cx="242" cy="76.9453" fill="none" rx="3" ry="3" style="stroke:#038048;stroke-width:1.0;"/><text fill="#000000" font-family="sans-serif" font-size="14" lengthAdjust="spacing" textLength="67" x="251" y="80.292">total_time</text><line style="stroke:#181818;stroke-width:0.5;" x1="232" x2="323" y1="87.5938" y2="87.5938"/></g><!--MD5=[3cc3f4de90deb50cd3534d9c2bfb4630]
class EstimateLine--><g id="elem_EstimateLine"><rect codeLine="20" fill="#F1F1F1" height="96.8906" id="EstimateLine" rx="2.5" ry="2.5" style="stroke:#181818;stroke-width:0.5;" width="120" x="217.5" y="197"/><ellipse cx="232.5" cy="213" fill="#ADD1B2" rx="11" ry="11" style="stroke:#181818;stroke-width:1.0;"/><path d="M235.4688,218.6406 Q234.8906,218.9375 234.25,219.0781 Q233.6094,219.2344 232.9063,219.2344 Q230.4063,219.2344 229.0781,217.5938 Q227.7656,215.9375 227.7656,212.8125 Q227.7656,209.6875 229.0781,208.0313 Q230.4063,206.375 232.9063,206.375 Q233.6094,206.375 234.25,206.5313 Q234.9063,206.6875 235.4688,206.9844 L235.4688,209.7031 Q234.8438,209.125 234.25,208.8594 Q233.6563,208.5781 233.0313,208.5781 Q231.6875,208.5781 231,209.6563 Q230.3125,210.7188 230.3125,212.8125 Q230.3125,214.9063 231,215.9844 Q231.6875,217.0469 233.0313,217.0469 Q233.6563,217.0469 234.25,216.7813 Q234.8438,216.5 235.4688,215.9219 L235.4688,218.6406 Z " fill="#000000"/><text fill="#000000" font-family="sans-serif" font-size="14" lengthAdjust="spacing" textLength="88" x="246.5" y="217.8467">EstimateLine</text><line style="stroke:#181818;stroke-width:0.5;" x1="218.5" x2="336.5" y1="229" y2="229"/><ellipse cx="228.5" cy="242.6484" fill="none" rx="3" ry="3" style="stroke:#038048;stroke-width:1.0;"/><text fill="#000000" font-family="sans-serif" font-size="14" lengthAdjust="spacing" textLength="32" x="237.5" y="245.9951">label</text><ellipse cx="228.5" cy="258.9453" fill="none" rx="3" ry="3" style="stroke:#038048;stroke-width:1.0;"/><text fill="#000000" font-family="sans-serif" font-size="14" lengthAdjust="spacing" textLength="30" x="237.5" y="262.292">time</text><ellipse cx="228.5" cy="275.2422" fill="none" rx="3" ry="3" style="stroke:#038048;stroke-width:1.0;"/><text fill="#000000" font-family="sans-serif" font-size="14" lengthAdjust="spacing" textLength="30" x="237.5" y="278.5889">type</text><line style="stroke:#181818;stroke-width:0.5;" x1="218.5" x2="336.5" y1="285.8906" y2="285.8906"/></g><!--MD5=[62138fcdf1703134ffc17d3835677f47]
link Estimate to EstimateLine--><g id="link_Estimate_EstimateLine"><path codeLine="26" d="M277.5,96.37 C277.5,125.69 277.5,165.66 277.5,196.69 " fill="none" id="Estimate-EstimateLine" style="stroke:#181818;stroke-width:1.0;"/><text fill="#000000" font-family="sans-serif" font-size="13" lengthAdjust="spacing" textLength="54" x="278.5" y="147.0669">contains</text><text fill="#000000" font-family="sans-serif" font-size="13" lengthAdjust="spacing" textLength="8" x="268.9125" y="115.5808">1</text><text fill="#000000" font-family="sans-serif" font-size="13" lengthAdjust="spacing" textLength="24" x="251.8125" y="185.8553">0..n</text></g><!--MD5=[973e12e794c645617b164359d41b63ba]
link EstimateField to EstimatePresetValue--><g id="link_EstimateField_EstimatePresetValue"><path codeLine="27" d="M94.5,104.43 C94.5,127.6 94.5,155.73 94.5,180.69 " fill="none" id="EstimateField-EstimatePresetValue" style="stroke:#181818;stroke-width:1.0;"/><text fill="#000000" font-family="sans-serif" font-size="13" lengthAdjust="spacing" textLength="59" x="95.5" y="147.0669">proposes</text><text fill="#000000" font-family="sans-serif" font-size="13" lengthAdjust="spacing" textLength="8" x="85.9625" y="124.0959">1</text><text fill="#000000" font-family="sans-serif" font-size="13" lengthAdjust="spacing" textLength="24" x="69.1875" y="169.8288">0..n</text></g><!--MD5=[0095c2243eb0d79144500428e5eb659b]
@startuml
class EstimateField {
  +name
  +slug
  +type
}

class EstimatePresetValue {
  +label
  +value
  +time
  +startup_time
  +total_percentage
}

class Estimate {
  +name
  +total_time
}

class EstimateLine {
  +label
  +time
  +type
}

Estimate "1" - - "0..n" EstimateLine : contains
EstimateField "1" - - "0..n" EstimatePresetValue : proposes
@enduml

PlantUML version 1.2022.7(Mon Aug 22 17:01:30 UTC 2022)
(GPL source distribution)
Java Runtime: OpenJDK Runtime Environment
JVM: OpenJDK 64-Bit Server VM
Default Encoding: UTF-8
Language: en
Country: null
--></g></svg>