<?xml version="1.0" encoding="us-ascii" standalone="no"?><svg xmlns="http://www.w3.org/2000/svg" xmlns:xlink="http://www.w3.org/1999/xlink" contentStyleType="text/css" height="349px" preserveAspectRatio="none" style="width:373px;height:349px;background:#FFFFFF;" version="1.1" viewBox="0 0 373 349" width="373px" zoomAndPan="magnify"><defs/><g><!--class EstimateField--><g id="elem_EstimateField"><rect codeLine="3" fill="#F1F1F1" height="113.1875" id="EstimateField" rx="3.5" ry="3.5" style="stroke:#181818;stroke-width:0.5;" width="131" x="47.0422" y="7"/><ellipse cx="62.0422" cy="23" fill="#ADD1B2" rx="11" ry="11" style="stroke:#181818;stroke-width:1.0;"/><path d="M60.8391,23.875 L62.2922,23.875 L62.2922,23.9844 C62.2922,24.3906 62.3234,24.5469 62.4016,24.7031 C62.5578,24.9531 62.8391,25.1094 63.1359,25.1094 C63.3859,25.1094 63.6516,24.9688 63.8078,24.75 C63.9328,24.5938 63.9641,24.4375 63.9641,23.9844 L63.9641,22.0625 C63.9641,21.9063 63.9641,21.8594 63.9484,21.7031 C63.8859,21.2344 63.5734,20.9219 63.1203,20.9219 C62.8703,20.9219 62.6047,21.0625 62.4328,21.2813 C62.3234,21.4531 62.2922,21.6094 62.2922,22.0625 L62.2922,22.1875 L60.8391,22.1875 L60.8391,19.7813 L64.8234,19.7813 L64.8234,20.6406 C64.8234,21.0469 64.8547,21.2188 64.9328,21.375 C65.1047,21.625 65.3859,21.7813 65.6672,21.7813 C65.9328,21.7813 66.1984,21.6406 66.3703,21.4219 C66.4797,21.25 66.5109,21.1094 66.5109,20.6406 L66.5109,18.0938 L58.8859,18.0938 C58.4484,18.0938 58.3234,18.1094 58.1672,18.2031 C57.9172,18.3594 57.7609,18.6563 57.7609,18.9375 C57.7609,19.2188 57.9016,19.4688 58.1203,19.6406 C58.2766,19.75 58.4641,19.7813 58.8859,19.7813 L59.1359,19.7813 L59.1359,26.2969 L58.8859,26.2969 C58.4797,26.2969 58.3234,26.3125 58.1672,26.4219 C57.9172,26.5938 57.7609,26.8594 57.7609,27.1563 C57.7609,27.4219 57.9016,27.6719 58.1203,27.8281 C58.2609,27.9531 58.4953,28 58.8859,28 L66.8859,28 L66.8859,25.4219 C66.8859,24.9844 66.8547,24.8438 66.7766,24.6875 C66.6047,24.4375 66.3234,24.2813 66.0422,24.2813 C65.7766,24.2813 65.5109,24.3906 65.3391,24.6406 C65.2297,24.7969 65.1984,24.9375 65.1984,25.4219 L65.1984,26.2969 L60.8391,26.2969 L60.8391,23.875 Z " fill="#000000"/><text fill="#000000" font-family="sans-serif" font-size="14" lengthAdjust="spacing" textLength="99" x="76.0422" y="27.8467">EstimateField</text><line style="stroke:#181818;stroke-width:0.5;" x1="48.0422" x2="177.0422" y1="39" y2="39"/><ellipse cx="58.0422" cy="52.6484" fill="#000000" rx="3" ry="3" style="stroke:#000000;stroke-width:1.0;"/><text fill="#000000" font-family="sans-serif" font-size="14" lengthAdjust="spacing" textLength="13" x="67.0422" y="55.9951">id</text><line style="stroke:#181818;stroke-width:1.0;" x1="48.0422" x2="177.0422" y1="63.2969" y2="63.2969"/><ellipse cx="58.0422" cy="76.9453" fill="#000000" rx="3" ry="3" style="stroke:#000000;stroke-width:1.0;"/><text fill="#000000" font-family="sans-serif" font-size="14" lengthAdjust="spacing" textLength="40" x="67.0422" y="80.292">name</text><ellipse cx="58.0422" cy="93.2422" fill="#000000" rx="3" ry="3" style="stroke:#000000;stroke-width:1.0;"/><text fill="#000000" font-family="sans-serif" font-size="14" lengthAdjust="spacing" textLength="28" x="67.0422" y="96.5889">slug</text><ellipse cx="58.0422" cy="109.5391" fill="#000000" rx="3" ry="3" style="stroke:#000000;stroke-width:1.0;"/><text fill="#000000" font-family="sans-serif" font-size="14" lengthAdjust="spacing" textLength="34" x="67.0422" y="112.8857">type</text></g><!--class EstimatePresetValue--><g id="elem_EstimatePresetValue"><rect codeLine="11" fill="#F1F1F1" height="162.0781" id="EstimatePresetValue" rx="3.5" ry="3.5" style="stroke:#181818;stroke-width:0.5;" width="183" x="21.0422" y="180"/><ellipse cx="36.0422" cy="196" fill="#ADD1B2" rx="11" ry="11" style="stroke:#181818;stroke-width:1.0;"/><path d="M34.8391,196.875 L36.2922,196.875 L36.2922,196.9844 C36.2922,197.3906 36.3234,197.5469 36.4016,197.7031 C36.5578,197.9531 36.8391,198.1094 37.1359,198.1094 C37.3859,198.1094 37.6516,197.9688 37.8078,197.75 C37.9328,197.5938 37.9641,197.4375 37.9641,196.9844 L37.9641,195.0625 C37.9641,194.9063 37.9641,194.8594 37.9484,194.7031 C37.8859,194.2344 37.5734,193.9219 37.1203,193.9219 C36.8703,193.9219 36.6047,194.0625 36.4328,194.2813 C36.3234,194.4531 36.2922,194.6094 36.2922,195.0625 L36.2922,195.1875 L34.8391,195.1875 L34.8391,192.7813 L38.8234,192.7813 L38.8234,193.6406 C38.8234,194.0469 38.8547,194.2188 38.9328,194.375 C39.1047,194.625 39.3859,194.7813 39.6672,194.7813 C39.9328,194.7813 40.1984,194.6406 40.3703,194.4219 C40.4797,194.25 40.5109,194.1094 40.5109,193.6406 L40.5109,191.0938 L32.8859,191.0938 C32.4484,191.0938 32.3234,191.1094 32.1672,191.2031 C31.9172,191.3594 31.7609,191.6563 31.7609,191.9375 C31.7609,192.2188 31.9016,192.4688 32.1203,192.6406 C32.2766,192.75 32.4641,192.7813 32.8859,192.7813 L33.1359,192.7813 L33.1359,199.2969 L32.8859,199.2969 C32.4797,199.2969 32.3234,199.3125 32.1672,199.4219 C31.9172,199.5938 31.7609,199.8594 31.7609,200.1563 C31.7609,200.4219 31.9016,200.6719 32.1203,200.8281 C32.2609,200.9531 32.4953,201 32.8859,201 L40.8859,201 L40.8859,198.4219 C40.8859,197.9844 40.8547,197.8438 40.7766,197.6875 C40.6047,197.4375 40.3234,197.2813 40.0422,197.2813 C39.7766,197.2813 39.5109,197.3906 39.3391,197.6406 C39.2297,197.7969 39.1984,197.9375 39.1984,198.4219 L39.1984,199.2969 L34.8391,199.2969 L34.8391,196.875 Z " fill="#000000"/><text fill="#000000" font-family="sans-serif" font-size="14" lengthAdjust="spacing" textLength="151" x="50.0422" y="200.8467">EstimatePresetValue</text><line style="stroke:#181818;stroke-width:0.5;" x1="22.0422" x2="203.0422" y1="212" y2="212"/><ellipse cx="32.0422" cy="225.6484" fill="#000000" rx="3" ry="3" style="stroke:#000000;stroke-width:1.0;"/><text fill="#000000" font-family="sans-serif" font-size="14" lengthAdjust="spacing" textLength="13" x="41.0422" y="228.9951">id</text><line style="stroke:#181818;stroke-width:1.0;" x1="22.0422" x2="203.0422" y1="236.2969" y2="236.2969"/><ellipse cx="32.0422" cy="249.9453" fill="#000000" rx="3" ry="3" style="stroke:#000000;stroke-width:1.0;"/><text fill="#000000" font-family="sans-serif" font-size="14" lengthAdjust="spacing" textLength="35" x="41.0422" y="253.292">label</text><ellipse cx="32.0422" cy="266.2422" fill="#000000" rx="3" ry="3" style="stroke:#000000;stroke-width:1.0;"/><text fill="#000000" font-family="sans-serif" font-size="14" lengthAdjust="spacing" textLength="37" x="41.0422" y="269.5889">value</text><text fill="#000000" font-family="sans-serif" font-size="14" lengthAdjust="spacing" textLength="34" x="41.0422" y="285.8857">time</text><text fill="#000000" font-family="sans-serif" font-size="14" lengthAdjust="spacing" textLength="94" x="41.0422" y="302.1826">startup_time</text><text fill="#000000" font-family="sans-serif" font-size="14" lengthAdjust="spacing" textLength="126" x="41.0422" y="318.4795">total_percentage</text><ellipse cx="32.0422" cy="331.4297" fill="#000000" rx="3" ry="3" style="stroke:#000000;stroke-width:1.0;"/><text fill="#000000" font-family="sans-serif" font-size="14" lengthAdjust="spacing" textLength="124" x="41.0422" y="334.7764">estimate_field_id</text></g><!--class Estimate--><g id="elem_Estimate"><rect codeLine="22" fill="#F1F1F1" height="96.8906" id="Estimate" rx="3.5" ry="3.5" style="stroke:#181818;stroke-width:0.5;" width="102" x="251.5422" y="15"/><ellipse cx="268.7922" cy="31" fill="#ADD1B2" rx="11" ry="11" style="stroke:#181818;stroke-width:1.0;"/><path d="M267.5891,31.875 L269.0422,31.875 L269.0422,31.9844 C269.0422,32.3906 269.0734,32.5469 269.1516,32.7031 C269.3078,32.9531 269.5891,33.1094 269.8859,33.1094 C270.1359,33.1094 270.4016,32.9688 270.5578,32.75 C270.6828,32.5938 270.7141,32.4375 270.7141,31.9844 L270.7141,30.0625 C270.7141,29.9063 270.7141,29.8594 270.6984,29.7031 C270.6359,29.2344 270.3234,28.9219 269.8703,28.9219 C269.6203,28.9219 269.3547,29.0625 269.1828,29.2813 C269.0734,29.4531 269.0422,29.6094 269.0422,30.0625 L269.0422,30.1875 L267.5891,30.1875 L267.5891,27.7813 L271.5734,27.7813 L271.5734,28.6406 C271.5734,29.0469 271.6047,29.2188 271.6828,29.375 C271.8547,29.625 272.1359,29.7813 272.4172,29.7813 C272.6828,29.7813 272.9484,29.6406 273.1203,29.4219 C273.2297,29.25 273.2609,29.1094 273.2609,28.6406 L273.2609,26.0938 L265.6359,26.0938 C265.1984,26.0938 265.0734,26.1094 264.9172,26.2031 C264.6672,26.3594 264.5109,26.6563 264.5109,26.9375 C264.5109,27.2188 264.6516,27.4688 264.8703,27.6406 C265.0266,27.75 265.2141,27.7813 265.6359,27.7813 L265.8859,27.7813 L265.8859,34.2969 L265.6359,34.2969 C265.2297,34.2969 265.0734,34.3125 264.9172,34.4219 C264.6672,34.5938 264.5109,34.8594 264.5109,35.1563 C264.5109,35.4219 264.6516,35.6719 264.8703,35.8281 C265.0109,35.9531 265.2453,36 265.6359,36 L273.6359,36 L273.6359,33.4219 C273.6359,32.9844 273.6047,32.8438 273.5266,32.6875 C273.3547,32.4375 273.0734,32.2813 272.7922,32.2813 C272.5266,32.2813 272.2609,32.3906 272.0891,32.6406 C271.9797,32.7969 271.9484,32.9375 271.9484,33.4219 L271.9484,34.2969 L267.5891,34.2969 L267.5891,31.875 Z " fill="#000000"/><text fill="#000000" font-family="sans-serif" font-size="14" lengthAdjust="spacing" textLength="65" x="283.2922" y="35.8467">Estimate</text><line style="stroke:#181818;stroke-width:0.5;" x1="252.5422" x2="352.5422" y1="47" y2="47"/><ellipse cx="262.5422" cy="60.6484" fill="#000000" rx="3" ry="3" style="stroke:#000000;stroke-width:1.0;"/><text fill="#000000" font-family="sans-serif" font-size="14" lengthAdjust="spacing" textLength="13" x="271.5422" y="63.9951">id</text><line style="stroke:#181818;stroke-width:1.0;" x1="252.5422" x2="352.5422" y1="71.2969" y2="71.2969"/><ellipse cx="262.5422" cy="84.9453" fill="#000000" rx="3" ry="3" style="stroke:#000000;stroke-width:1.0;"/><text fill="#000000" font-family="sans-serif" font-size="14" lengthAdjust="spacing" textLength="40" x="271.5422" y="88.292">name</text><ellipse cx="262.5422" cy="101.2422" fill="#000000" rx="3" ry="3" style="stroke:#000000;stroke-width:1.0;"/><text fill="#000000" font-family="sans-serif" font-size="14" lengthAdjust="spacing" textLength="76" x="271.5422" y="104.5889">total_time</text></g><!--class EstimateLine--><g id="elem_EstimateLine"><rect codeLine="29" fill="#F1F1F1" height="129.4844" id="EstimateLine" rx="3.5" ry="3.5" style="stroke:#181818;stroke-width:0.5;" width="127" x="239.0422" y="196.5"/><ellipse cx="254.0422" cy="212.5" fill="#ADD1B2" rx="11" ry="11" style="stroke:#181818;stroke-width:1.0;"/><path d="M252.8391,213.375 L254.2922,213.375 L254.2922,213.4844 C254.2922,213.8906 254.3234,214.0469 254.4016,214.2031 C254.5578,214.4531 254.8391,214.6094 255.1359,214.6094 C255.3859,214.6094 255.6516,214.4688 255.8078,214.25 C255.9328,214.0938 255.9641,213.9375 255.9641,213.4844 L255.9641,211.5625 C255.9641,211.4063 255.9641,211.3594 255.9484,211.2031 C255.8859,210.7344 255.5734,210.4219 255.1203,210.4219 C254.8703,210.4219 254.6047,210.5625 254.4328,210.7813 C254.3234,210.9531 254.2922,211.1094 254.2922,211.5625 L254.2922,211.6875 L252.8391,211.6875 L252.8391,209.2813 L256.8234,209.2813 L256.8234,210.1406 C256.8234,210.5469 256.8547,210.7188 256.9328,210.875 C257.1047,211.125 257.3859,211.2813 257.6672,211.2813 C257.9328,211.2813 258.1984,211.1406 258.3703,210.9219 C258.4797,210.75 258.5109,210.6094 258.5109,210.1406 L258.5109,207.5938 L250.8859,207.5938 C250.4484,207.5938 250.3234,207.6094 250.1672,207.7031 C249.9172,207.8594 249.7609,208.1563 249.7609,208.4375 C249.7609,208.7188 249.9016,208.9688 250.1203,209.1406 C250.2766,209.25 250.4641,209.2813 250.8859,209.2813 L251.1359,209.2813 L251.1359,215.7969 L250.8859,215.7969 C250.4797,215.7969 250.3234,215.8125 250.1672,215.9219 C249.9172,216.0938 249.7609,216.3594 249.7609,216.6563 C249.7609,216.9219 249.9016,217.1719 250.1203,217.3281 C250.2609,217.4531 250.4953,217.5 250.8859,217.5 L258.8859,217.5 L258.8859,214.9219 C258.8859,214.4844 258.8547,214.3438 258.7766,214.1875 C258.6047,213.9375 258.3234,213.7813 258.0422,213.7813 C257.7766,213.7813 257.5109,213.8906 257.3391,214.1406 C257.2297,214.2969 257.1984,214.4375 257.1984,214.9219 L257.1984,215.7969 L252.8391,215.7969 L252.8391,213.375 Z " fill="#000000"/><text fill="#000000" font-family="sans-serif" font-size="14" lengthAdjust="spacing" textLength="95" x="268.0422" y="217.3467">EstimateLine</text><line style="stroke:#181818;stroke-width:0.5;" x1="240.0422" x2="365.0422" y1="228.5" y2="228.5"/><ellipse cx="250.0422" cy="242.1484" fill="#000000" rx="3" ry="3" style="stroke:#000000;stroke-width:1.0;"/><text fill="#000000" font-family="sans-serif" font-size="14" lengthAdjust="spacing" textLength="13" x="259.0422" y="245.4951">id</text><line style="stroke:#181818;stroke-width:1.0;" x1="240.0422" x2="365.0422" y1="252.7969" y2="252.7969"/><ellipse cx="250.0422" cy="266.4453" fill="#000000" rx="3" ry="3" style="stroke:#000000;stroke-width:1.0;"/><text fill="#000000" font-family="sans-serif" font-size="14" lengthAdjust="spacing" textLength="35" x="259.0422" y="269.792">label</text><ellipse cx="250.0422" cy="282.7422" fill="#000000" rx="3" ry="3" style="stroke:#000000;stroke-width:1.0;"/><text fill="#000000" font-family="sans-serif" font-size="14" lengthAdjust="spacing" textLength="34" x="259.0422" y="286.0889">time</text><ellipse cx="250.0422" cy="299.0391" fill="#000000" rx="3" ry="3" style="stroke:#000000;stroke-width:1.0;"/><text fill="#000000" font-family="sans-serif" font-size="14" lengthAdjust="spacing" textLength="34" x="259.0422" y="302.3857">type</text><ellipse cx="250.0422" cy="315.3359" fill="#000000" rx="3" ry="3" style="stroke:#000000;stroke-width:1.0;"/><text fill="#000000" font-family="sans-serif" font-size="14" lengthAdjust="spacing" textLength="85" x="259.0422" y="318.6826">estimate_id</text></g><!--link Estimate to EstimateLine--><g id="link_Estimate_EstimateLine"><path codeLine="38" d="M302.5422,112.075 C302.5422,137.392 302.5422,168.871 302.5422,196.273 " fill="none" id="Estimate-EstimateLine" style="stroke:#454645;stroke-width:1.0;"/><text fill="#000000" font-family="sans-serif" font-size="13" lengthAdjust="spacing" textLength="95" x="200.8625" y="132.0445">Contains (0, N)</text><text fill="#000000" font-family="sans-serif" font-size="13" lengthAdjust="spacing" textLength="81" x="217.1125" y="185.4208">Line of (1, 1)</text></g><!--link EstimateField to EstimatePresetValue--><g id="link_EstimateField_EstimatePresetValue"><path codeLine="39" d="M112.5422,120.261 C112.5422,138.77 112.5422,159.759 112.5422,179.74 " fill="none" id="EstimateField-EstimatePresetValue" style="stroke:#454645;stroke-width:1.0;"/><text fill="#000000" font-family="sans-serif" font-size="13" lengthAdjust="spacing" textLength="98" x="8.5703" y="140.1564">Proposes (0, N)</text><text fill="#000000" font-family="sans-serif" font-size="13" lengthAdjust="spacing" textLength="102" x="6" y="168.9041">Option for (1, 1)</text></g><!--SRC=[VP312W8X48RlFiMqfueDwXcYJb5xwYfJpPRWgkXi4D6xfxjBR4XTd56Px_zqmZTg2ExgvD6m46HOyGCsWLM3J5j5-W9F0J1NbxWk5gars52gGRVNLFdXIBoouSfJ83wYRYb3Q3oHJiqzNSScZgGI63stJWvRjenQElBdoCPhbqe3NjP9JaPe7lrJkGTsz7ngfymVqq6fV-tOepVuH1Th6rsL2J1Tbh2V5H44HSUsDKnN9QpYsJXJV7ztKNdhRA1lmC6niWPgwpF6wAFV]--></g></svg>