<?xml version="1.0" encoding="us-ascii" standalone="no"?><svg xmlns="http://www.w3.org/2000/svg" xmlns:xlink="http://www.w3.org/1999/xlink" contentStyleType="text/css" height="349px" preserveAspectRatio="none" style="width:359px;height:349px;background:#FFFFFF;" version="1.1" viewBox="0 0 359 349" width="359px" zoomAndPan="magnify"><defs/><g><!--class EstimateField--><g id="elem_EstimateField"><rect codeLine="3" fill="#F1F1F1" height="113.1875" id="EstimateField" rx="3.5" ry="3.5" style="stroke:#181818;stroke-width:0.5;" width="131" x="33" y="7"/><ellipse cx="48" cy="23" fill="#ADD1B2" rx="11" ry="11" style="stroke:#181818;stroke-width:1.0;"/><path d="M46.7969,23.875 L48.25,23.875 L48.25,23.9844 C48.25,24.3906 48.2813,24.5469 48.3594,24.7031 C48.5156,24.9531 48.7969,25.1094 49.0938,25.1094 C49.3438,25.1094 49.6094,24.9688 49.7656,24.75 C49.8906,24.5938 49.9219,24.4375 49.9219,23.9844 L49.9219,22.0625 C49.9219,21.9063 49.9219,21.8594 49.9063,21.7031 C49.8438,21.2344 49.5313,20.9219 49.0781,20.9219 C48.8281,20.9219 48.5625,21.0625 48.3906,21.2813 C48.2813,21.4531 48.25,21.6094 48.25,22.0625 L48.25,22.1875 L46.7969,22.1875 L46.7969,19.7813 L50.7813,19.7813 L50.7813,20.6406 C50.7813,21.0469 50.8125,21.2188 50.8906,21.375 C51.0625,21.625 51.3438,21.7813 51.625,21.7813 C51.8906,21.7813 52.1563,21.6406 52.3281,21.4219 C52.4375,21.25 52.4688,21.1094 52.4688,20.6406 L52.4688,18.0938 L44.8438,18.0938 C44.4063,18.0938 44.2813,18.1094 44.125,18.2031 C43.875,18.3594 43.7188,18.6563 43.7188,18.9375 C43.7188,19.2188 43.8594,19.4688 44.0781,19.6406 C44.2344,19.75 44.4219,19.7813 44.8438,19.7813 L45.0938,19.7813 L45.0938,26.2969 L44.8438,26.2969 C44.4375,26.2969 44.2813,26.3125 44.125,26.4219 C43.875,26.5938 43.7188,26.8594 43.7188,27.1563 C43.7188,27.4219 43.8594,27.6719 44.0781,27.8281 C44.2188,27.9531 44.4531,28 44.8438,28 L52.8438,28 L52.8438,25.4219 C52.8438,24.9844 52.8125,24.8438 52.7344,24.6875 C52.5625,24.4375 52.2813,24.2813 52,24.2813 C51.7344,24.2813 51.4688,24.3906 51.2969,24.6406 C51.1875,24.7969 51.1563,24.9375 51.1563,25.4219 L51.1563,26.2969 L46.7969,26.2969 L46.7969,23.875 Z " fill="#000000"/><text fill="#000000" font-family="sans-serif" font-size="14" lengthAdjust="spacing" textLength="99" x="62" y="27.8467">EstimateField</text><line style="stroke:#181818;stroke-width:0.5;" x1="34" x2="163" y1="39" y2="39"/><ellipse cx="44" cy="52.6484" fill="#000000" rx="3" ry="3" style="stroke:#000000;stroke-width:1.0;"/><text fill="#000000" font-family="sans-serif" font-size="14" lengthAdjust="spacing" textLength="13" x="53" y="55.9951">id</text><line style="stroke:#181818;stroke-width:1.0;" x1="34" x2="163" y1="63.2969" y2="63.2969"/><ellipse cx="44" cy="76.9453" fill="#000000" rx="3" ry="3" style="stroke:#000000;stroke-width:1.0;"/><text fill="#000000" font-family="sans-serif" font-size="14" lengthAdjust="spacing" textLength="40" x="53" y="80.292">name</text><ellipse cx="44" cy="93.2422" fill="#000000" rx="3" ry="3" style="stroke:#000000;stroke-width:1.0;"/><text fill="#000000" font-family="sans-serif" font-size="14" lengthAdjust="spacing" textLength="28" x="53" y="96.5889">slug</text><ellipse cx="44" cy="109.5391" fill="#000000" rx="3" ry="3" style="stroke:#000000;stroke-width:1.0;"/><text fill="#000000" font-family="sans-serif" font-size="14" lengthAdjust="spacing" textLength="34" x="53" y="112.8857">type</text></g><!--class EstimatePresetValue--><g id="elem_EstimatePresetValue"><rect codeLine="11" fill="#F1F1F1" height="162.0781" id="EstimatePresetValue" rx="3.5" ry="3.5" style="stroke:#181818;stroke-width:0.5;" width="183" x="7" y="180"/><ellipse cx="22" cy="196" fill="#ADD1B2" rx="11" ry="11" style="stroke:#181818;stroke-width:1.0;"/><path d="M20.7969,196.875 L22.25,196.875 L22.25,196.9844 C22.25,197.3906 22.2813,197.5469 22.3594,197.7031 C22.5156,197.9531 22.7969,198.1094 23.0938,198.1094 C23.3438,198.1094 23.6094,197.9688 23.7656,197.75 C23.8906,197.5938 23.9219,197.4375 23.9219,196.9844 L23.9219,195.0625 C23.9219,194.9063 23.9219,194.8594 23.9063,194.7031 C23.8438,194.2344 23.5313,193.9219 23.0781,193.9219 C22.8281,193.9219 22.5625,194.0625 22.3906,194.2813 C22.2813,194.4531 22.25,194.6094 22.25,195.0625 L22.25,195.1875 L20.7969,195.1875 L20.7969,192.7813 L24.7813,192.7813 L24.7813,193.6406 C24.7813,194.0469 24.8125,194.2188 24.8906,194.375 C25.0625,194.625 25.3438,194.7813 25.625,194.7813 C25.8906,194.7813 26.1563,194.6406 26.3281,194.4219 C26.4375,194.25 26.4688,194.1094 26.4688,193.6406 L26.4688,191.0938 L18.8438,191.0938 C18.4063,191.0938 18.2813,191.1094 18.125,191.2031 C17.875,191.3594 17.7188,191.6563 17.7188,191.9375 C17.7188,192.2188 17.8594,192.4688 18.0781,192.6406 C18.2344,192.75 18.4219,192.7813 18.8438,192.7813 L19.0938,192.7813 L19.0938,199.2969 L18.8438,199.2969 C18.4375,199.2969 18.2813,199.3125 18.125,199.4219 C17.875,199.5938 17.7188,199.8594 17.7188,200.1563 C17.7188,200.4219 17.8594,200.6719 18.0781,200.8281 C18.2188,200.9531 18.4531,201 18.8438,201 L26.8438,201 L26.8438,198.4219 C26.8438,197.9844 26.8125,197.8438 26.7344,197.6875 C26.5625,197.4375 26.2813,197.2813 26,197.2813 C25.7344,197.2813 25.4688,197.3906 25.2969,197.6406 C25.1875,197.7969 25.1563,197.9375 25.1563,198.4219 L25.1563,199.2969 L20.7969,199.2969 L20.7969,196.875 Z " fill="#000000"/><text fill="#000000" font-family="sans-serif" font-size="14" lengthAdjust="spacing" textLength="151" x="36" y="200.8467">EstimatePresetValue</text><line style="stroke:#181818;stroke-width:0.5;" x1="8" x2="189" y1="212" y2="212"/><ellipse cx="18" cy="225.6484" fill="#000000" rx="3" ry="3" style="stroke:#000000;stroke-width:1.0;"/><text fill="#000000" font-family="sans-serif" font-size="14" lengthAdjust="spacing" textLength="13" x="27" y="228.9951">id</text><line style="stroke:#181818;stroke-width:1.0;" x1="8" x2="189" y1="236.2969" y2="236.2969"/><ellipse cx="18" cy="249.9453" fill="#000000" rx="3" ry="3" style="stroke:#000000;stroke-width:1.0;"/><text fill="#000000" font-family="sans-serif" font-size="14" lengthAdjust="spacing" textLength="35" x="27" y="253.292">label</text><ellipse cx="18" cy="266.2422" fill="#000000" rx="3" ry="3" style="stroke:#000000;stroke-width:1.0;"/><text fill="#000000" font-family="sans-serif" font-size="14" lengthAdjust="spacing" textLength="37" x="27" y="269.5889">value</text><text fill="#000000" font-family="sans-serif" font-size="14" lengthAdjust="spacing" textLength="34" x="27" y="285.8857">time</text><text fill="#000000" font-family="sans-serif" font-size="14" lengthAdjust="spacing" textLength="94" x="27" y="302.1826">startup_time</text><text fill="#000000" font-family="sans-serif" font-size="14" lengthAdjust="spacing" textLength="126" x="27" y="318.4795">total_percentage</text><ellipse cx="18" cy="331.4297" fill="#000000" rx="3" ry="3" style="stroke:#000000;stroke-width:1.0;"/><text fill="#000000" font-family="sans-serif" font-size="14" lengthAdjust="spacing" textLength="124" x="27" y="334.7764">estimate_field_id</text></g><!--class Estimate--><g id="elem_Estimate"><rect codeLine="22" fill="#F1F1F1" height="96.8906" id="Estimate" rx="3.5" ry="3.5" style="stroke:#181818;stroke-width:0.5;" width="102" x="237.5" y="15"/><ellipse cx="254.75" cy="31" fill="#ADD1B2" rx="11" ry="11" style="stroke:#181818;stroke-width:1.0;"/><path d="M253.5469,31.875 L255,31.875 L255,31.9844 C255,32.3906 255.0313,32.5469 255.1094,32.7031 C255.2656,32.9531 255.5469,33.1094 255.8438,33.1094 C256.0938,33.1094 256.3594,32.9688 256.5156,32.75 C256.6406,32.5938 256.6719,32.4375 256.6719,31.9844 L256.6719,30.0625 C256.6719,29.9063 256.6719,29.8594 256.6563,29.7031 C256.5938,29.2344 256.2813,28.9219 255.8281,28.9219 C255.5781,28.9219 255.3125,29.0625 255.1406,29.2813 C255.0313,29.4531 255,29.6094 255,30.0625 L255,30.1875 L253.5469,30.1875 L253.5469,27.7813 L257.5313,27.7813 L257.5313,28.6406 C257.5313,29.0469 257.5625,29.2188 257.6406,29.375 C257.8125,29.625 258.0938,29.7813 258.375,29.7813 C258.6406,29.7813 258.9063,29.6406 259.0781,29.4219 C259.1875,29.25 259.2188,29.1094 259.2188,28.6406 L259.2188,26.0938 L251.5938,26.0938 C251.1563,26.0938 251.0313,26.1094 250.875,26.2031 C250.625,26.3594 250.4688,26.6563 250.4688,26.9375 C250.4688,27.2188 250.6094,27.4688 250.8281,27.6406 C250.9844,27.75 251.1719,27.7813 251.5938,27.7813 L251.8438,27.7813 L251.8438,34.2969 L251.5938,34.2969 C251.1875,34.2969 251.0313,34.3125 250.875,34.4219 C250.625,34.5938 250.4688,34.8594 250.4688,35.1563 C250.4688,35.4219 250.6094,35.6719 250.8281,35.8281 C250.9688,35.9531 251.2031,36 251.5938,36 L259.5938,36 L259.5938,33.4219 C259.5938,32.9844 259.5625,32.8438 259.4844,32.6875 C259.3125,32.4375 259.0313,32.2813 258.75,32.2813 C258.4844,32.2813 258.2188,32.3906 258.0469,32.6406 C257.9375,32.7969 257.9063,32.9375 257.9063,33.4219 L257.9063,34.2969 L253.5469,34.2969 L253.5469,31.875 Z " fill="#000000"/><text fill="#000000" font-family="sans-serif" font-size="14" lengthAdjust="spacing" textLength="65" x="269.25" y="35.8467">Estimate</text><line style="stroke:#181818;stroke-width:0.5;" x1="238.5" x2="338.5" y1="47" y2="47"/><ellipse cx="248.5" cy="60.6484" fill="#000000" rx="3" ry="3" style="stroke:#000000;stroke-width:1.0;"/><text fill="#000000" font-family="sans-serif" font-size="14" lengthAdjust="spacing" textLength="13" x="257.5" y="63.9951">id</text><line style="stroke:#181818;stroke-width:1.0;" x1="238.5" x2="338.5" y1="71.2969" y2="71.2969"/><ellipse cx="248.5" cy="84.9453" fill="#000000" rx="3" ry="3" style="stroke:#000000;stroke-width:1.0;"/><text fill="#000000" font-family="sans-serif" font-size="14" lengthAdjust="spacing" textLength="40" x="257.5" y="88.292">name</text><ellipse cx="248.5" cy="101.2422" fill="#000000" rx="3" ry="3" style="stroke:#000000;stroke-width:1.0;"/><text fill="#000000" font-family="sans-serif" font-size="14" lengthAdjust="spacing" textLength="76" x="257.5" y="104.5889">total_time</text></g><!--class EstimateLine--><g id="elem_EstimateLine"><rect codeLine="29" fill="#F1F1F1" height="129.4844" id="EstimateLine" rx="3.5" ry="3.5" style="stroke:#181818;stroke-width:0.5;" width="127" x="225" y="196.5"/><ellipse cx="240" cy="212.5" fill="#ADD1B2" rx="11" ry="11" style="stroke:#181818;stroke-width:1.0;"/><path d="M238.7969,213.375 L240.25,213.375 L240.25,213.4844 C240.25,213.8906 240.2813,214.0469 240.3594,214.2031 C240.5156,214.4531 240.7969,214.6094 241.0938,214.6094 C241.3438,214.6094 241.6094,214.4688 241.7656,214.25 C241.8906,214.0938 241.9219,213.9375 241.9219,213.4844 L241.9219,211.5625 C241.9219,211.4063 241.9219,211.3594 241.9063,211.2031 C241.8438,210.7344 241.5313,210.4219 241.0781,210.4219 C240.8281,210.4219 240.5625,210.5625 240.3906,210.7813 C240.2813,210.9531 240.25,211.1094 240.25,211.5625 L240.25,211.6875 L238.7969,211.6875 L238.7969,209.2813 L242.7813,209.2813 L242.7813,210.1406 C242.7813,210.5469 242.8125,210.7188 242.8906,210.875 C243.0625,211.125 243.3438,211.2813 243.625,211.2813 C243.8906,211.2813 244.1563,211.1406 244.3281,210.9219 C244.4375,210.75 244.4688,210.6094 244.4688,210.1406 L244.4688,207.5938 L236.8438,207.5938 C236.4063,207.5938 236.2813,207.6094 236.125,207.7031 C235.875,207.8594 235.7188,208.1563 235.7188,208.4375 C235.7188,208.7188 235.8594,208.9688 236.0781,209.1406 C236.2344,209.25 236.4219,209.2813 236.8438,209.2813 L237.0938,209.2813 L237.0938,215.7969 L236.8438,215.7969 C236.4375,215.7969 236.2813,215.8125 236.125,215.9219 C235.875,216.0938 235.7188,216.3594 235.7188,216.6563 C235.7188,216.9219 235.8594,217.1719 236.0781,217.3281 C236.2188,217.4531 236.4531,217.5 236.8438,217.5 L244.8438,217.5 L244.8438,214.9219 C244.8438,214.4844 244.8125,214.3438 244.7344,214.1875 C244.5625,213.9375 244.2813,213.7813 244,213.7813 C243.7344,213.7813 243.4688,213.8906 243.2969,214.1406 C243.1875,214.2969 243.1563,214.4375 243.1563,214.9219 L243.1563,215.7969 L238.7969,215.7969 L238.7969,213.375 Z " fill="#000000"/><text fill="#000000" font-family="sans-serif" font-size="14" lengthAdjust="spacing" textLength="95" x="254" y="217.3467">EstimateLine</text><line style="stroke:#181818;stroke-width:0.5;" x1="226" x2="351" y1="228.5" y2="228.5"/><ellipse cx="236" cy="242.1484" fill="#000000" rx="3" ry="3" style="stroke:#000000;stroke-width:1.0;"/><text fill="#000000" font-family="sans-serif" font-size="14" lengthAdjust="spacing" textLength="13" x="245" y="245.4951">id</text><line style="stroke:#181818;stroke-width:1.0;" x1="226" x2="351" y1="252.7969" y2="252.7969"/><ellipse cx="236" cy="266.4453" fill="#000000" rx="3" ry="3" style="stroke:#000000;stroke-width:1.0;"/><text fill="#000000" font-family="sans-serif" font-size="14" lengthAdjust="spacing" textLength="35" x="245" y="269.792">label</text><ellipse cx="236" cy="282.7422" fill="#000000" rx="3" ry="3" style="stroke:#000000;stroke-width:1.0;"/><text fill="#000000" font-family="sans-serif" font-size="14" lengthAdjust="spacing" textLength="34" x="245" y="286.0889">time</text><ellipse cx="236" cy="299.0391" fill="#000000" rx="3" ry="3" style="stroke:#000000;stroke-width:1.0;"/><text fill="#000000" font-family="sans-serif" font-size="14" lengthAdjust="spacing" textLength="34" x="245" y="302.3857">type</text><ellipse cx="236" cy="315.3359" fill="#000000" rx="3" ry="3" style="stroke:#000000;stroke-width:1.0;"/><text fill="#000000" font-family="sans-serif" font-size="14" lengthAdjust="spacing" textLength="85" x="245" y="318.6826">estimate_id</text></g><!--link Estimate to EstimateLine--><g id="link_Estimate_EstimateLine"><path codeLine="38" d="M288.5,120.279 C288.5,141.394 288.5,165.734 288.5,188.123 " fill="none" id="Estimate-EstimateLine" style="stroke:#454645;stroke-width:1.0;"/><line style="stroke:#454645;stroke-width:1.0;" x1="284.5" x2="292.5" y1="116.075" y2="116.075"/><line style="stroke:#454645;stroke-width:1.0;" x1="284.5" x2="292.5" y1="119.075" y2="119.075"/><line style="stroke:#454645;stroke-width:1.0;" x1="288.5" x2="288.5" y1="120.075" y2="112.075"/><line style="stroke:#454645;stroke-width:1.0;" x1="288.5" x2="294.5" y1="188.273" y2="196.273"/><line style="stroke:#454645;stroke-width:1.0;" x1="288.5" x2="282.5" y1="188.273" y2="196.273"/><line style="stroke:#454645;stroke-width:1.0;" x1="288.5" x2="288.5" y1="188.273" y2="196.273"/><ellipse cx="288.5" cy="182.273" fill="none" rx="4" ry="4" style="stroke:#454645;stroke-width:1.0;"/></g><!--link EstimateField to EstimatePresetValue--><g id="link_EstimateField_EstimatePresetValue"><path codeLine="39" d="M98.5,128.656 C98.5,142.428 98.5,157.214 98.5,171.719 " fill="none" id="EstimateField-EstimatePresetValue" style="stroke:#454645;stroke-width:1.0;"/><line style="stroke:#454645;stroke-width:1.0;" x1="94.5" x2="102.5" y1="124.261" y2="124.261"/><line style="stroke:#454645;stroke-width:1.0;" x1="94.5" x2="102.5" y1="127.261" y2="127.261"/><line style="stroke:#454645;stroke-width:1.0;" x1="98.5" x2="98.5" y1="128.261" y2="120.261"/><line style="stroke:#454645;stroke-width:1.0;" x1="98.5" x2="104.5" y1="171.74" y2="179.74"/><line style="stroke:#454645;stroke-width:1.0;" x1="98.5" x2="92.5" y1="171.74" y2="179.74"/><line style="stroke:#454645;stroke-width:1.0;" x1="98.5" x2="98.5" y1="171.74" y2="179.74"/><ellipse cx="98.5" cy="165.74" fill="none" rx="4" ry="4" style="stroke:#454645;stroke-width:1.0;"/></g><!--SRC=[VP313i8W38RlF0LUJNWCFNdmv9LqhauIO0jqIvPjxoxTY751lT2_WV_hJm_qH8ToC5K0JqAW9qEZF4Ko3WZF1cqj9o7bqTJfL8gb1uTSe-qRhZHsA9R2V0qOaMvWUomG5YgqB0Q-JY9Pk4I2G7sdSqijWTKTXdjYGxDEnOpN3mwd4xGS_JFo1bpffUjY_9-aETBssyySMuBtw7bMgfrsKB7VPtxnRL4l]--></g></svg>